<svg xmlns="http://www.w3.org/2000/svg" width="69" height="82" viewBox="0 0 69 82" fill="none">
<path opacity="0.66" fill-rule="evenodd" clip-rule="evenodd" d="M15.4107 15.9392C13.8893 14.5654 12.0414 13.5352 9.81657 12.8816C14.9573 10.4003 20.3975 9.90241 26.2602 12.2054C25.0187 10.3112 23.3526 8.6606 21.0131 7.3867C28.513 7.30946 34.5306 9.89053 37.871 17.2226C28.5801 11.8061 18.8368 14.7746 13.0506 23.8024C20.9739 15.6944 30.9485 13.8667 40.8168 20.9563C38.3255 12.7497 34.7238 5.40574 28.6204 0C42.2536 4.95061 47.0472 17.2238 56.7905 25.0216C59.4089 36.3191 66.1578 41.6702 64.31 31.7345C68.1327 36.8848 68.864 43.2317 68.1999 50.111L65.9378 47.9732C64.1086 49.4467 62.6357 49.0807 61.2784 48.073C63.6273 47.7854 63.7429 44.9049 59.9212 44.0077C58.2459 43.6084 56.2916 43.2329 55.0883 42.0362C59.8448 40.6411 53.4223 36.3988 46.3655 36.476C54.2992 38.88 50.6789 49.1472 59.4688 47.8519C56.6769 51.6736 53.6154 52.5483 50.3608 51.3076C54.2506 47.5965 47.039 44.6613 40.3964 43.7534C41.4944 42.7338 42.7266 41.9031 44.1995 41.4052C40.9841 39.1902 37.3256 37.517 32.8584 36.8301C35.4964 34.848 38.5868 33.5955 42.2546 33.2413C24.6169 16.9588 12.8615 37.5728 32.5692 54.1537C41.5233 61.6854 50.6014 70.4696 55.079 82H29.1224C22.0367 65.374 4.10982 57.1661 6.10228 38.2478C3.65638 39.1343 1.7507 41.0285 0.325301 43.808C-0.21387 36.6305 0.690946 29.9176 6.45863 24.8232C4.2441 24.8339 2.13596 25.2997 0.0846351 26.0412C3.32896 21.3223 7.93153 17.5898 15.4118 15.9392H15.4107ZM52.5928 30.3941L55.5676 30.4606L49.2328 25.2438L52.5928 30.3941ZM26.1456 32.0994C24.557 34.1267 24.7305 37.2056 25.4143 39.6203C27.3499 46.3986 32.5867 50.3427 37.2368 54.4413C31.1717 45.9233 32.3264 40.8277 38.6137 41.5704C34.512 39.7427 31.027 38.8562 26.6755 38.192C29.5831 35.523 32.1632 33.3851 35.6482 31.889C34.1846 31.0916 32.6632 30.5153 31.152 30.3382C29.361 30.1279 27.4068 30.4927 26.1456 32.0994ZM8.84461 66.2712C10.0965 72.529 9.58623 78.2116 3.47253 82H26.1941C23.6047 76.5503 19.7344 71.9752 16.0181 67.5451C11.8978 62.6159 7.50701 57.4216 5.13859 51.0521C4.26269 48.6814 3.70389 46.2667 3.47253 43.7973C1.71041 50.2108 7.381 58.8952 8.84461 66.2712ZM42.4942 0.676164C43.6593 2.96847 44.5642 5.60539 45.2572 8.518C47.9149 11.4532 50.3701 14.5987 53.0267 17.5339C49.5706 11.5079 48.5108 4.46339 42.4942 0.674975V0.676164Z" fill="#210407"/>
</svg>