<svg xmlns="http://www.w3.org/2000/svg" width="68" height="66" viewBox="0 0 68 66" fill="none">
<g id="Group 1000007077">
<path id="Vector" d="M26.0895 7.54317C26.0895 7.54317 21.8872 7.72127 21.3105 9.22665C20.7337 10.732 20.2546 12.3434 19.4065 13.4756C18.5117 14.6715 17.8417 15.5111 17.8417 15.5111L15.9971 15.9945C15.9971 15.9945 17.6551 13.2085 17.0827 12.8099C16.5102 12.4113 16.2515 12.5088 16.0098 12.6318C15.7851 12.7463 15.5985 12.7548 15.6451 13.5604C15.7342 15.0658 15.5137 14.3577 15.5137 14.3577C15.5137 14.3577 14.2967 12.988 15.1405 12.0551C15.9801 11.1264 17.4304 11.3893 17.6467 12.3222C17.8629 13.2509 17.4219 11.436 17.6848 10.1087L17.9477 8.7814C17.9477 8.7814 18.3463 10.0663 18.3039 11.3935C18.2615 12.7208 18.2743 13.0049 18.516 12.8989C18.8128 12.7675 18.9231 12.8565 19.1012 11.4402C19.2793 10.0239 19.1012 8.64994 20.2079 7.85697C21.3147 7.05975 24.4696 6.39823 26.0938 7.54741L26.0895 7.54317Z" fill="#02092B"/>
<path id="Vector_2" d="M18.5137 13.2985C18.5137 13.2985 18.8614 12.1069 18.5137 10.9195C18.1659 9.7322 17.8861 9.09189 17.8861 9.09189C17.8861 9.09189 17.3051 7.81125 18.6663 7.23455C20.0275 6.65784 21.7916 6.19138 23.1697 6.95043C24.5522 7.70948 18.8784 6.52638 18.8317 8.16322C18.7851 9.80005 19.4551 12.1917 18.8317 13.0737C18.2084 13.96 18.5094 13.2942 18.5094 13.2942L18.5137 13.2985Z" fill="#02092B"/>
<path id="Vector_3" d="M19.853 6.9297C19.853 6.9297 20.6926 4.2285 22.639 3.87654C24.5854 3.52457 28.8344 3.56698 28.9658 3.65603C29.0973 3.74508 29.7631 3.52457 29.1863 4.09704C28.6096 4.67375 28.211 5.47097 26.7523 5.69147C25.2936 5.91198 24.6829 6.62438 24.4582 6.97635C24.2292 7.32831 20.1456 7.0866 19.8487 6.93394L19.853 6.9297Z" fill="#02092B"/>
<path id="Vector_4" d="M25.0104 16.4205C25.0486 16.4205 25.091 16.4205 25.1291 16.4205C26.3546 16.3697 27.4699 15.4919 28.4622 13.8084C28.4961 13.749 28.53 13.6896 28.5512 13.66C28.6106 13.6176 28.6912 13.4988 28.9032 13.1808C29.5308 12.2352 31.0022 10.0258 32.6263 8.94452C34.1911 7.90136 34.6745 7.91408 36.1078 7.948C36.587 7.96072 37.1806 7.97344 37.9524 7.948C37.9991 7.948 38.0457 7.948 38.0924 7.948C41.1158 7.948 47.7268 12.303 47.7734 12.3327V11.9468C47.7734 11.9468 44.3471 9.21167 43.3421 8.42294C42.5915 7.83351 41.3957 7.47306 40.3398 7.15503C39.9455 7.03629 39.5765 6.9218 39.2797 6.81154C38.2959 6.44262 38.0712 6.03553 38.0669 6.03129L38.0372 5.97616L37.9779 5.96344C37.9779 5.96344 36.7312 5.69205 34.9968 4.86515C33.1988 4.01281 30.7096 4.82275 30.6036 4.86091C30.6036 4.86091 30.5824 4.86939 30.5782 4.87363C30.3153 5.01357 29.5605 5.49275 29.5605 5.49275C29.5393 5.50547 27.8261 6.60376 27.084 7.04901C26.4055 7.4561 26.1129 7.42218 26.1087 7.42218H26.0917H26.0705C25.956 7.43914 23.2803 7.85047 22.1947 8.82579L21.9827 9.01237C21.4781 9.46186 21.4653 9.48306 21.2236 10.1191C21.0879 10.4838 20.8801 11.0393 20.4518 12.0104C19.2475 14.7498 17.6743 14.5886 17.6573 14.5886L17.8397 15.5173H17.017L18.0941 15.0509C18.1323 15.0593 18.6624 15.1611 19.3705 15.0509H19.4723L20.7996 15.4664C20.8293 15.4707 21.5459 15.5724 24.1962 16.3103C24.4718 16.3866 24.739 16.4248 25.0062 16.4248L25.0104 16.4205ZM28.4155 13.4183C28.3646 13.4479 28.318 13.5243 28.2332 13.6684C27.7964 14.4063 26.4734 16.658 24.2725 16.0474C21.5883 15.301 20.8886 15.2077 20.8589 15.2035L19.9472 14.9194C20.261 14.8261 20.5875 14.6819 20.9141 14.4741L21.1643 14.313C22.3304 13.5667 23.1743 13.0281 23.3057 11.8069C23.3396 11.5058 23.3354 11.1962 23.3354 10.8994C23.3354 9.94952 23.3311 9.19895 24.2725 8.95724C24.8874 8.80034 25.3199 8.74946 25.638 8.71129C26.0408 8.66465 26.2825 8.63496 26.4606 8.42718C26.626 8.23636 27.6607 7.62996 28.4537 7.18895C28.3689 7.42218 28.1908 7.7487 27.8388 7.96072C27.7243 8.02857 27.0331 8.41446 26.8847 8.49503C26.1511 8.89363 25.7016 9.1311 25.392 10.0004C25.0358 11.0054 24.9001 13.4861 24.8959 13.537L25.2606 12.197C25.2606 12.197 25.2987 11.0563 25.638 10.0937C25.9136 9.32192 26.8635 8.80458 27.5589 8.42294C27.7116 8.33813 27.8515 8.2618 27.9703 8.19395C28.6827 7.76566 29.1152 6.8073 29.1194 6.77338L29.5605 5.48851L28.5936 6.81578C28.3816 6.93028 26.5285 7.93952 26.2529 8.2618C26.1468 8.38477 25.9857 8.41022 25.6041 8.45262C25.2775 8.49079 24.8365 8.54167 24.2047 8.70705C23.064 9.00389 23.0682 9.97072 23.0682 10.9079C23.0682 11.2005 23.0682 11.4973 23.0386 11.7857C22.9241 12.8797 22.165 13.3631 21.0201 14.0925L20.7699 14.2536C20.278 14.5717 19.7649 14.7201 19.3281 14.7879H18.2171C18.8447 14.6141 19.8582 14.0246 20.6978 12.1207C21.1303 11.1411 21.3381 10.5814 21.478 10.2124C21.6251 9.81948 21.854 9.48589 22.165 9.21167L22.377 9.02509C23.3608 8.13882 25.8712 7.72325 26.096 7.68933C26.1977 7.69781 26.5455 7.68085 27.2239 7.278C27.9703 6.83275 29.6877 5.73021 29.7046 5.72173L30.7054 5.1111C30.9047 5.04749 33.2497 4.33085 34.8865 5.1111C36.464 5.86167 37.6089 6.15427 37.8719 6.21363C37.9736 6.35781 38.3044 6.73097 39.1906 7.06173C39.4917 7.17623 39.8691 7.28648 40.2677 7.40946C41.2515 7.70629 42.4728 8.07522 43.1852 8.63496C43.6135 8.96996 44.1308 9.38553 44.5846 9.75446C42.9562 8.91484 40.0939 7.6342 37.9524 7.68933C37.1891 7.71053 36.5955 7.69781 36.1205 7.68933C34.6618 7.65541 34.1148 7.64268 32.4822 8.73249C30.8156 9.84351 29.323 12.0867 28.6869 13.0409C28.5724 13.2105 28.4664 13.3759 28.4198 13.431L28.4155 13.4183Z" fill="#02092B"/>
<path id="Vector_5" d="M40.0312 7.14753C40.0312 7.14753 34.1454 6.23582 32.199 7.93626C27.95 11.6552 28.0476 12.5754 26.8433 14.0002C25.9316 15.0815 23.7901 16.1671 22.7681 15.9084C21.7462 15.654 20.8599 15.196 20.8599 15.196L20.0797 15.2299L19.4775 15.0434L19.9482 14.9119C19.9482 14.9119 21.2204 15.5268 22.0642 14.9119C22.9038 14.2928 23.0777 14.0935 23.3873 13.0291C23.7011 11.969 23.7774 10.6544 24.2354 9.75544C24.6933 8.85645 25.1259 8.77588 25.1259 8.77588L26.4531 8.42392C26.4531 8.42392 25.4397 10.6205 25.3421 11.3159C25.2446 12.0114 24.846 12.6729 25.5542 12.1004C26.2623 11.5237 27.0595 10.7265 27.8992 9.00063C28.7388 7.27475 30.5113 5.75664 32.0167 5.36652C33.5221 4.97639 34.879 5.09512 34.879 5.09512L37.8644 6.19766L39.0983 6.34607L40.027 7.14753H40.0312Z" fill="#02092B"/>
<path id="Vector_6" d="M47.1559 12.7672C47.1559 12.7672 44.2809 10.8632 41.3125 11.5714C38.3484 12.2795 34.85 14.315 33.7898 15.2436C32.7255 16.1723 29.6172 18.6106 27.8616 18.6064C26.1018 18.6064 25.7795 18.2078 25.4276 17.5462C25.0756 16.8805 25.1307 16.1469 25.1307 16.1469C25.1307 16.1469 25.0289 17.3681 26.3138 17.6353C27.5987 17.9024 28.4383 17.9024 29.897 17.1179C30.9614 16.5497 36.1815 12.1481 39.2813 11.1303C41.427 10.4264 44.3487 9.93452 47.1602 12.7672H47.1559Z" fill="#02092B"/>
<path id="Vector_7" d="M25.3536 16.3947C25.3536 16.3947 25.6971 17.1029 26.8038 17.1453C27.9106 17.1877 30.3447 16.8824 31.0528 15.9495C31.761 15.0208 33.6183 13.5324 33.6183 13.5324C33.6183 13.5324 37.8673 11.0093 39.3261 10.581C40.7848 10.1527 43.9397 9.8813 45.3433 10.441C46.7469 11.0008 41.2724 8.2063 39.0165 9.53358C36.7605 10.8609 35.8319 11.8786 33.7964 12.3196C31.761 12.7606 30.9214 12.7182 30.9214 12.7182C30.9214 12.7182 28.746 13.8589 28.3474 14.0031C27.9488 14.143 28.6909 13.6045 29.7595 13.7826C30.8323 13.9607 31.3624 13.9904 30.0775 14.5925C28.7926 15.1989 26.4307 16.7382 25.3536 16.3905V16.3947Z" fill="#02092B"/>
<path id="Vector_8" d="M39.2787 10.0394C39.2787 10.0394 38.1719 9.61963 36.446 10.2387C34.7201 10.8579 31.1369 13.135 31.1369 13.135L28.2406 14.0001L28.4145 13.4106C28.4145 13.4106 30.0259 12.9399 30.645 12.3632C31.2641 11.7865 33.3208 9.86558 34.2494 9.39912C35.1781 8.93267 38.9394 8.00824 40.4957 8.96235C41.5813 9.62811 40.6992 8.87754 39.2744 10.0394H39.2787Z" fill="#02092B"/>
<path id="Vector_9" d="M35.5585 13.5458C35.5585 13.5458 36.7077 14.237 38.1707 14.0165C39.6294 13.796 42.0634 12.8207 42.373 12.4687C42.6826 12.1168 42.1101 12.5111 40.9779 12.8673C39.8499 13.2193 39.5403 13.1981 39.5403 13.1981C39.5403 13.1981 43.6367 11.3959 45.1336 11.8454C46.6305 12.2949 46.0877 11.8623 46.0877 11.8623C46.0877 11.8623 43.0812 10.6453 35.5585 13.5501V13.5458Z" fill="#02092B"/>
<path id="Vector_10" d="M34.4102 3.58125C34.4102 3.58125 40.2537 3.59821 42.2425 4.08587C44.2355 4.57352 45.4737 4.61593 47.153 5.76935C48.8364 6.91852 51.843 9.2084 52.1525 11.2735C52.4621 13.3387 52.1525 15.2384 52.1525 15.2384C52.1525 15.2384 50.927 17.1254 50.2485 16.9219C49.6337 16.7353 48.9213 15.9466 48.9213 15.9466C48.9213 15.9466 50.4266 18.0244 49.498 19.1312L48.5693 20.238C48.5693 20.238 47.1106 18.7792 45.2956 18.8216C43.4807 18.864 40.5166 19.6188 39.0578 19.7291C37.5991 19.8394 35.4746 20.238 34.1897 20.0175C32.9049 19.7969 32.4214 19.9284 32.4214 19.9284L31.709 19.7291C31.709 19.7291 33.0406 22.0953 36.628 21.9214C40.2113 21.7433 40.9873 21.5228 40.9873 21.5228C40.9873 21.5228 45.2999 20.7256 46.6059 21.9214C47.4922 22.7356 48.5354 23.8339 48.9297 25.3308C49.1163 26.0347 49.1587 26.8277 48.9721 27.7182C48.3954 30.5085 48.5311 29.5756 48.5311 29.5756C48.5311 29.5756 50.0365 27.0991 49.1969 24.8856C48.3573 22.672 48.0011 22.3667 48.0011 22.3667C48.0011 22.3667 50.4775 23.8678 50.4775 26.6114C50.4775 29.3551 50.7447 30.8138 49.2393 31.7001C47.7339 32.5863 47.5134 32.5609 47.5134 32.5609C47.5134 32.5609 48.7092 34.4733 48.7092 34.7532C48.7007 35.6395 49.6379 34.8295 49.6379 34.8295C49.6379 34.8295 53.7554 33.515 54.2855 30.2837C54.8156 27.0525 54.5951 26.7429 54.5951 26.7429C54.5951 26.7429 54.6375 24.8304 53.4883 23.5583C52.3391 22.2861 50.7871 21.5228 50.7871 21.5228C50.7871 21.5228 51.5843 22.6975 53.9293 20.5051C56.1471 18.4357 56.5414 18.6902 56.8934 16.4088C57.2454 14.1316 56.6729 12.3591 56.6729 12.3591C56.6729 12.3591 56.4651 10.4297 55.4347 9.11935C54.1498 7.49099 52.6995 6.98637 51.8048 6.54536C51.3299 6.31213 49.7227 6.16371 49.7227 6.16371C49.7227 6.16371 49.8542 5.27745 47.5092 3.81871C45.1642 2.35998 43.7945 1.78327 42.5096 1.43131C40.8728 0.986054 39.4564 1.15991 37.773 1.60517C36.0895 2.04618 34.7071 2.59745 34.4102 3.577V3.58125Z" fill="#02092B"/>
<path id="Vector_11" d="M40.6523 7.24074C40.6523 7.24074 38.0953 5.02295 36.1447 4.47169C34.1941 3.92042 32.1586 3.87377 32.0229 3.92042C31.8915 3.96282 31.3911 3.30979 30.3861 3.5939C30.3861 3.5939 31.3572 2.06308 29.7542 1.71112C28.1513 1.35915 27.405 1.71112 27.405 1.71112L26.0904 1.97827C26.0904 1.97827 29.4998 1.88922 29.7542 2.50833C30.0087 3.12744 28.9019 3.69143 29.1012 4.67523L29.2963 5.65903C29.2963 5.65903 32.4258 4.21301 35.4832 5.37491C38.3625 6.47321 40.6481 7.24498 40.6481 7.24498L40.6523 7.24074Z" fill="#02092B"/>
<path id="Vector_12" d="M55.6542 14.9186C55.6542 14.9186 60.7894 18.8241 61.7181 20.5924C62.6468 22.3607 63.0242 26.0118 62.0277 28.0811C60.9209 30.3837 60.4332 30.8247 60.4332 30.8247C60.4332 30.8247 61.557 30.6042 62.6764 29.7137C63.3592 29.1709 63.5288 28.6112 63.5288 28.6112C63.5288 28.6112 65.3861 31.8425 64.8137 33.7464C64.237 35.6504 62.7782 36.7996 60.4756 37.4654C58.173 38.1311 56.0061 37.5078 56.0061 37.5078L52.1982 38.3474L56.0061 42.1554C56.0061 42.1554 59.988 43.7498 60.2085 45.3866C60.429 47.0235 60.3866 46.4468 60.3866 46.4468C60.3866 46.4468 62.2015 44.7633 61.7139 42.7745C61.2262 40.7814 60.1194 39.9885 60.1194 39.9885C60.1194 39.9885 64.0589 39.8994 65.2547 37.9106C66.4505 35.9176 67.7015 32.6439 66.9933 29.9427C66.2851 27.2415 64.7246 25.6047 64.7246 25.6047C64.7246 25.6047 65.9204 22.331 64.3727 19.4983C62.9945 16.9795 62.5026 16.8098 61.9386 16.178C60.9166 15.0416 56.3199 12.0181 56.3199 12.0181C56.3199 12.0181 50.1245 10.0038 55.6542 14.9186Z" fill="#02092B"/>
<path id="Vector_13" d="M55.3869 18.3131C55.3869 18.3131 60.344 20.5776 61.3618 23.9997C62.3795 27.4175 61.824 28.1935 61.3406 29.4233C60.7214 31.005 60.4289 30.8269 60.4289 30.8269C60.4289 30.8269 61.2176 27.1546 59.1016 24.5848C57.1849 22.2568 55.9212 21.6886 55.0731 21.15C53.3048 20.0263 52.5966 18.8517 52.198 18.0078C51.7994 17.1682 53.7458 17.5456 55.3826 18.3089L55.3869 18.3131Z" fill="#02092B"/>
<path id="Vector_14" d="M51.1376 21.1563C51.1376 21.1563 54.5469 22.9924 55.7852 25.206C56.9004 27.1948 58.5245 30.8628 55.5732 33.687C51.5362 37.5501 48.7078 36.6002 48.7078 36.6002L48.6993 37.9911C48.6993 37.9911 52.1595 39.8993 53.2621 41.5828C54.3688 43.2663 54.5003 51.3614 54.1907 51.8067C53.8812 52.2477 54.1017 52.1162 54.1017 52.1162C54.1017 52.1162 55.3866 51.23 56.0057 49.2836C56.6248 47.3372 56.7138 45.3441 56.7138 45.3441C56.7138 45.3441 56.892 42.7786 55.6537 41.1418C54.4155 39.505 57.2015 37.8427 58.3549 36.6469C59.5041 35.451 61.8067 33.4877 60.8314 30.0783C59.8561 26.6689 57.2694 20.9782 51.1376 21.1605V21.1563Z" fill="#02092B"/>
<path id="Vector_15" d="M48.2615 20.5945V20.5606C48.622 18.6651 48.9866 16.7017 46.2303 15.8282C43.7878 15.0564 38.9663 17.3166 35.7775 18.8092C35.417 18.9789 35.0735 19.14 34.7555 19.2842C33.407 19.9033 32.4232 19.7549 31.6387 19.6361L31.4309 19.6065C30.8161 19.5174 29.8492 18.2919 29.5312 17.8254L29.3107 17.9739C29.3616 18.046 30.5362 19.7422 31.3928 19.8651L31.5963 19.8948C32.3766 20.0135 33.4409 20.1747 34.8658 19.5217C35.1838 19.3732 35.5273 19.2163 35.8877 19.0467C39.0384 17.571 43.8047 15.3363 46.1497 16.0784C48.6856 16.8798 48.3548 18.6396 48.0071 20.5054V20.5394L48.2615 20.586V20.5945Z" fill="#02092B"/>
<path id="Vector_16" d="M31.9647 18.8276C32.6093 18.8276 33.1096 18.6622 34.1019 18.306C34.8864 18.0219 36.29 17.1399 37.647 16.2875C38.4103 15.8084 39.1312 15.3546 39.6994 15.0323C40.7256 14.4514 43.3123 13.1453 45.5131 13.2768C47.9302 13.4209 49.9402 17.5639 49.9614 17.6063L50.2031 17.4918C50.1183 17.3137 48.1041 13.1665 45.5343 13.0096C43.2572 12.8739 40.6238 14.2097 39.5934 14.7864C38.9997 15.1214 38.2746 15.5751 37.5113 16.0585C36.167 16.9066 34.7762 17.7802 34.0171 18.0516C32.6305 18.552 32.2573 18.6622 31.0742 18.4756C29.925 18.2975 29.5603 17.5215 29.5476 17.4918L29.3059 17.6021C29.3229 17.6403 29.7384 18.5392 31.036 18.7428C31.405 18.8022 31.7018 18.8318 31.9732 18.8318L31.9647 18.8276Z" fill="#02092B"/>
<path id="Vector_17" d="M48.8413 15.3039C48.8413 15.3039 51.5722 13.913 50.741 11.6019C49.9141 9.29082 47.3359 6.75499 45.4319 5.91113C43.5279 5.07151 40.7419 4.6517 38.7489 4.39727C36.7558 4.14284 33.7705 4.01562 33.7705 4.01562C33.7705 4.01562 41.5603 4.9655 45.3005 8.18828C46.827 9.50284 47.514 11.1142 47.3359 11.9454C47.1578 12.7765 46.3648 12.3355 46.191 12.2549C46.0171 12.1786 45.0672 11.2966 43.9138 11.8182C42.7646 12.3397 40.0337 14.0147 40.0337 14.0147C40.0337 14.0147 42.4212 12.9334 44.0622 12.8316C45.6991 12.7299 46.492 12.8995 47.0263 13.544C47.5606 14.1886 48.8455 15.3081 48.8455 15.3081L48.8413 15.3039Z" fill="#02092B"/>
<path id="Vector_18" d="M36.1367 3.58908C36.1367 3.58908 32.6213 4.0725 32.2906 4.39478C31.9598 4.71281 35.0427 3.31769 34.2242 1.5494C33.3677 -0.307946 32.2906 0.0228133 32.2906 0.0228133C32.2906 0.0228133 35.7466 0.468067 36.1367 3.58908Z" fill="#02092B"/>
<path id="Vector_19" d="M33.7678 21.4417C33.7678 21.4417 33.0511 23.6765 34.2045 24.6476C35.2095 25.4957 36.2485 25.6441 36.7785 25.3091C37.3086 24.9783 43.733 22.7817 46.1882 24.1769C48.6435 25.572 48.652 26.7678 48.6986 29.0068C48.741 31.2458 46.6038 31.9582 46.6038 31.9582C46.6038 31.9582 47.6342 29.7065 46.1882 28.2053C44.7422 26.7 41.0021 26.4667 40.6501 26.5049C37.5757 26.8357 34.4547 29.3885 32.9281 30.1051C31.4016 30.8217 29.4764 31.1355 28.5477 30.8429C27.619 30.5546 29.1456 30.7836 30.6722 30.1051C32.1988 29.4266 34.2045 27.5608 34.2554 27.035C34.3063 26.5134 31.6857 23.1464 33.7678 21.4375V21.4417Z" fill="#02092B"/>
<path id="Vector_20" d="M33.3707 20.5902C33.3707 20.5902 35.1432 23.6476 38.9088 23.7197C42.6744 23.7918 45.5664 24.9664 45.5664 24.9664C45.5664 24.9664 34.363 25.8314 33.3665 20.5859L33.3707 20.5902Z" fill="#02092B"/>
<path id="Vector_21" d="M28.55 30.8546C28.55 30.8546 32.9304 30.825 35.7843 30.4603C38.6382 30.0998 47.1828 29.5274 48.5101 31.5628C49.8373 33.6025 49.2352 32.9283 49.6338 34.8407C50.0324 36.7532 48.6967 37.9914 48.6967 37.9914C48.6967 37.9914 50.2529 40.065 51.5802 41.4474C52.9075 42.8298 54.4637 44.102 54.8793 45.4971C55.2949 46.8922 55.032 51.7349 53.4375 53.5965C51.8431 55.4538 53.904 53.4311 53.5054 51.2218C53.1068 49.0167 51.9958 47.2909 50.1978 45.4293C48.3956 43.5719 47.7765 43.3048 47.7765 43.3048C47.7765 43.3048 50.4098 45.8576 51.6692 48.1602C52.0297 48.8132 53.0092 51.9978 52.1484 53.5668C51.2834 55.1358 50.1978 55.9839 50.1978 55.9839C50.1978 55.9839 50.5879 53.3293 50.5201 52.1293C50.4649 51.1455 50.1978 50.3271 50.1978 50.3271C50.1978 50.3271 49.0656 55.1909 46.1905 55.5853C43.2858 55.9839 40.8347 56.0263 41.6913 55.1188C43.4427 53.2742 44.7063 53.2064 45.5672 50.8698C46.4322 48.5333 46.5849 46.8202 46.6697 45.1621C46.6866 44.7932 46.6697 41.8545 46.2626 41.5704C45.8555 41.2863 44.5749 43.661 44.6766 43.0376C44.7106 42.8426 44.7699 42.639 44.859 42.4355C45.4569 40.9937 47.1573 39.3865 47.1573 39.3865C47.1573 39.3865 48.2175 31.4356 28.55 30.8462V30.8546Z" fill="#02092B"/>
<path id="Vector_22" d="M33.3676 22.375C33.3676 22.375 31.7943 24.4486 33.1258 26.1745L34.4531 27.9004C34.4531 27.9004 29.4748 26.3399 33.3676 22.375Z" fill="#02092B"/>
<path id="Vector_23" d="M28.3541 30.875L30.3471 31.0489C32.3402 31.2227 38.1709 32.4016 40.6558 33.466C43.1407 34.5303 44.803 35.3403 45.6002 37.2654C46.3974 39.1906 46.0243 40.2126 45.155 41.8579C44.2857 43.5075 43.022 45.1655 43.022 45.1655C43.022 45.1655 43.709 44.3259 43.9507 41.8579C44.0567 40.7893 44.3578 40.3186 41.805 37.134C39.7314 34.5473 32.2681 32.4949 28.3498 30.8792L28.3541 30.875Z" fill="#02092B"/>
<path id="Vector_24" d="M6.81671 53.4009C6.81671 53.4009 5.31556 54.3295 4.72613 53.7528L4.1367 53.1761C4.1367 53.1761 4.72613 55.4533 6.17215 55.4321C7.41886 55.4151 7.23227 55.0759 7.23227 55.0759C7.23227 55.0759 7.55879 55.5508 7.78778 56.3607C7.98284 57.0392 8.20759 57.2512 7.915 58.129C7.63936 58.9602 7.63512 59.0153 7.63512 59.0153C7.63512 59.0153 8.25 58.4386 8.25 57.4209C8.25 56.4031 7.53335 54.8087 7.53335 54.8087L7.31284 53.1719L6.81671 53.3924V53.4009Z" fill="#02092B"/>
<path id="Vector_25" d="M7.93887 60.3042L8.14666 60.2534C8.18482 60.2449 9.07956 60.0074 9.67323 58.5699L9.72413 59.0745L9.8895 59.0066C9.93191 58.9897 10.9454 58.5614 11.2634 56.8949L11.3228 56.5938C11.573 55.258 11.3313 54.7195 10.8012 53.9265C10.8012 53.9265 11.3058 55.2368 11.0599 56.5429L11.0005 56.844C10.7842 57.9847 10.2287 58.4851 9.94887 58.6674L9.87678 57.9465C9.79621 56.598 9.40609 55.8475 9.40609 55.8475L9.60963 57.9296C9.57147 58.0737 9.52058 58.2264 9.45697 58.3918C9.08805 59.3247 8.5919 59.7275 8.30779 59.8929C8.38412 59.6088 8.52406 59.0999 8.75728 58.396C9.14741 57.2129 7.71836 53.7187 7.65899 53.5703L7.41304 53.6721C7.42576 53.706 8.8633 57.2256 8.50709 58.3154C8.13393 59.4604 7.994 60.071 7.98551 60.0965L7.93887 60.3042Z" fill="#02092B"/>
<path id="Vector_26" d="M10.9373 60.2591C10.9669 60.2591 10.9966 60.2549 11.0348 60.2337C11.0645 60.221 11.0942 60.1998 11.1281 60.1616C11.4504 59.992 12.2391 59.5425 13.2992 58.7241C14.4145 57.8632 14.2576 57.2823 14.0922 56.6717C14.0413 56.4851 13.9904 56.2942 13.9692 56.0822C13.8844 55.1917 14.0668 54.403 14.071 54.3903L14.2109 53.3047C14.1982 53.3471 13.6173 55.162 13.7063 56.1034C13.7275 56.3367 13.7826 56.5402 13.8378 56.7353C13.9989 57.3247 14.1134 57.753 13.1381 58.5078C12.3663 59.1057 11.7345 59.5043 11.3316 59.7418C11.3825 59.5722 11.4334 59.3432 11.48 59.0336C11.6709 57.7827 11.3359 56.5784 11.3232 56.5317L11.0687 56.6038C11.0687 56.6038 11.3995 57.7996 11.2171 58.9954C11.1196 59.6315 11.0136 59.869 10.9585 59.9538C10.8949 59.9877 10.8609 60.0047 10.8609 60.0047L11.1408 59.9496L10.8567 60.2422C10.8567 60.2422 10.8991 60.2634 10.9415 60.2634L10.9373 60.2591Z" fill="#02092B"/>
<path id="Vector_27" d="M16.397 60.8728L16.2655 60.4445C16.2655 60.4445 16.2528 60.4275 16.2401 60.4021C16.2231 60.33 16.1892 60.0968 16.2867 59.431C16.3673 58.867 16.7532 58.1292 17.1221 57.4168C17.4359 56.8146 17.7327 56.2421 17.8557 55.7715C18.1314 54.724 17.0967 52.167 17.0543 52.061L15.4768 50.8906C15.4853 50.9161 17.8557 54.741 17.6013 55.7078C17.4868 56.1489 17.1984 56.7086 16.8889 57.298C16.5072 58.0316 16.1129 58.7865 16.0281 59.3971C16.0026 59.5667 15.9857 59.7109 15.9729 59.8381C15.8288 59.448 15.7143 58.9264 15.8669 58.4345C16.1722 57.4295 16.8338 55.5382 16.838 55.517C16.838 55.517 16.8422 55.4916 16.8465 55.4831C16.8465 55.4534 16.8846 54.7707 16.2782 53.5579L15.6803 52.3621L15.146 51.832L16.0408 53.6766C16.5624 54.7156 16.6005 55.3474 16.5793 55.4534C16.5412 55.6654 15.9008 57.4083 15.6125 58.3582C15.3326 59.2741 15.7524 60.0035 15.9178 60.2834C15.9475 60.3724 16.0747 60.6353 16.1214 60.648L16.4012 60.8728H16.397Z" fill="#02092B"/>
<path id="Vector_28" d="M12.7004 59.1535C13.7309 58.9882 14.3627 58.632 14.7104 58.3606C14.9097 58.2037 15.003 58.0892 15.0072 58.0849C15.0369 58.0341 15.5161 57.1817 15.4695 56.0961C15.4271 55.0403 15.2065 53.6154 15.2023 53.6027L14.9012 52.25C14.9012 52.25 15.1599 55.0615 15.2023 56.1046C15.2447 57.0927 14.8079 57.8941 14.7867 57.9365C14.7867 57.9365 14.7189 58.0213 14.5493 58.1485C14.227 58.3987 13.6333 58.7295 12.658 58.8906L12.7004 59.1535Z" fill="#02092B"/>
<path id="Vector_29" d="M15.8096 60.3196C15.852 60.3196 15.886 60.3069 15.9156 60.2814C15.9538 60.2433 16.0005 60.1585 15.8775 60.0312L15.8478 59.8362C16.0047 59.463 15.6867 60.15 15.7079 60.1203C15.7375 60.0736 15.7927 60.0652 15.8096 60.0652C15.6697 60.0397 14.7325 59.4715 14.512 58.9117C14.4442 58.7336 14.4569 58.5852 14.5587 58.458L14.3467 58.2969C14.0371 58.6955 14.2237 59.2213 14.8682 59.7726C14.8767 59.7768 15.5128 60.3238 15.8054 60.3238L15.8096 60.3196Z" fill="#02092B"/>
<path id="Vector_30" d="M8.63421 57.598C8.63421 57.598 8.46459 58.2298 7.91757 58.6411C7.59953 58.8829 7.59529 59.0228 7.70979 58.9295C7.70979 58.9295 8.85896 58.4673 8.62998 57.5938L8.63421 57.598Z" fill="#02092B"/>
<path id="Vector_31" d="M22.017 49.2344C22.017 49.2344 21.9491 49.8238 22.8142 50.3242C23.6793 50.8246 25.579 51.7787 26.1981 53.3053C26.8172 54.8318 26.6391 54.853 26.707 56.0913C26.7748 57.3295 26.7536 58.5465 26.8851 59.4328C27.0165 60.3191 27.237 62.223 27.8816 62.9948C28.5219 63.7708 28.7891 64.0804 28.7891 64.0804C28.7891 64.0804 27.9494 63.5927 27.5296 62.8634C27.1098 62.134 26.9529 61.5785 26.9529 61.5785C26.9529 61.5785 27.4194 63.3256 27.7713 63.6139L28.1233 63.9023C28.1233 63.9023 27.3727 63.7708 26.8384 62.4436C26.7833 62.3121 26.7324 62.1679 26.6815 62.0153C26.232 60.6498 25.9055 58.6483 25.9055 58.1734C25.9055 57.6433 25.7953 56.316 25.7953 56.316C25.7953 56.316 25.5281 60.0095 25.9267 61.0272C26.1939 61.7057 26.7155 62.1213 26.7155 62.1213C26.7155 62.1213 25.8377 61.8668 25.35 60.9806C24.8624 60.0943 24.5994 59.3437 24.5104 58.6144C24.4213 57.885 24.3535 55.981 24.3535 55.981C24.3535 55.981 24.1542 53.8565 23.5139 53.1696C22.8736 52.4826 22.2756 51.8635 22.2756 51.8635C22.2756 51.8635 21.6141 51.4225 21.3894 50.867C21.1689 50.3115 21.1689 49.9722 21.1689 49.9722C21.1689 49.9722 21.5675 50.9348 22.2078 51.4437C22.8481 51.9525 23.8446 52.8388 24.1118 53.301L24.3789 53.7675C24.3789 53.7675 24.7097 52.8388 24.1584 52.1306C23.6072 51.4225 23.3612 51.2698 22.8524 50.8712C22.3435 50.4726 21.5251 49.8959 22.0127 49.2344H22.017Z" fill="#02092B"/>
<path id="Vector_32" d="M25.4258 60.558C25.4258 60.558 24.5607 59.3198 24.3614 58.8533C24.1621 58.3869 24.0307 57.8144 24.0307 57.8144L23.8314 56.9281C23.8314 56.9281 24.1409 56.6864 24.1833 56.0885C24.23 55.4906 24.1833 54.8291 24.1833 54.8291C24.1833 54.8291 24.2512 54.1633 23.9628 53.6545C23.6745 53.1456 23.8229 52.0303 23.6745 53.3703C23.5176 54.74 23.6999 56.1436 23.3479 56.9281C22.996 57.7126 22.4617 58.5904 21.7959 58.7007C21.1301 58.8109 20.757 58.8321 20.757 58.8321C20.757 58.8321 22.3387 59.2053 22.979 58.3529C23.5218 57.6321 23.5218 57.4836 23.5218 57.4836C23.5218 57.4836 23.9882 60.469 25.4258 60.558Z" fill="#02092B"/>
<path id="Vector_33" d="M26.0195 61.7438C26.0195 61.7438 25.3665 61.6505 24.5226 60.989C23.683 60.3233 22.131 59.0087 21.69 58.2836C21.249 57.5585 21.3635 57.6009 21.3635 57.6009C21.3635 57.6009 22.7543 57.1344 22.7077 56.3838C22.6653 55.6333 22.6865 55.9852 22.6865 55.9852C22.6865 55.9852 22.9748 57.1132 22.5084 57.8426C22.0419 58.5719 22.131 58.4193 22.131 58.4193C22.131 58.4193 23.0597 57.7535 23.0809 57.0454C23.1021 56.3372 23.1699 55.8962 22.8137 55.0523C22.4617 54.2127 22.4363 53.9922 22.4363 53.9922C22.4363 53.9922 22.4787 54.7216 22.2794 55.4085C22.0801 56.0955 22.0589 56.2269 21.6179 56.7824C21.1811 57.3295 20.8461 57.8002 20.8461 57.8002C20.8461 57.8002 22.3303 61.4809 26.0111 61.7396L26.0195 61.7438Z" fill="#02092B"/>
<path id="Vector_34" d="M22.375 55.8502C22.375 55.8502 21.7092 57.2453 21.3997 57.4192C21.0901 57.5973 21.0477 57.8644 21.0477 57.8644C21.0477 57.8644 20.6958 58.6574 20.9163 59.4546C21.1368 60.2518 21.6117 61.2017 22.1545 61.4222C22.7015 61.6427 20.8696 61.9565 19.9197 60.3155C18.9699 58.6744 18.9699 57.8602 18.9699 57.8602C18.9699 57.8602 19.148 58.8313 18.5289 59.408C17.9097 59.9847 17.3118 59.849 17.3118 59.849C17.3118 59.849 18.6179 58.6532 18.6603 57.5931C18.7027 56.5329 18.7918 56.041 18.7918 56.041L18.7451 53.9844C18.7451 53.9844 19.254 57.1308 19.5423 57.8602C19.8307 58.5896 20.5813 57.7923 20.5813 57.7923C20.5813 57.7923 22.3284 56.3294 22.375 55.8417V55.8502Z" fill="#02092B"/>
<path id="Vector_35" d="M20.8498 51.3757C20.8498 51.3757 20.9601 52.0372 21.2908 52.8556C21.6216 53.674 22.0202 55.5144 21.6004 56.0869C21.1806 56.6636 20.0611 58.0545 20.0187 58.6524C19.9763 59.2503 19.4547 58.3852 19.4547 58.3852C19.4547 58.3852 19.8745 57.0792 19.8957 56.2395C19.9169 55.3999 20.2052 54.3695 19.8066 53.5553C19.408 52.7411 19.4547 53.0083 19.4547 53.0083C19.4547 53.0083 20.43 53.3178 20.2731 55.0098L20.1162 56.7017C20.1162 56.7017 20.7565 56.2014 21.1763 55.5059C21.4986 54.9716 21.5537 54.7766 20.8456 51.3672L20.8498 51.3757Z" fill="#02092B"/>
<path id="Vector_36" d="M18.0356 59.3073C18.0356 59.3073 18.1629 58.5525 17.8999 57.8655C17.637 57.1786 17.7261 57.7171 17.7473 56.6485C17.7685 55.5841 17.7134 55.3594 17.7134 55.3594C17.7134 55.3594 17.4123 57.0471 17.5013 57.8613C17.5904 58.6797 17.6328 59.5193 17.5225 59.6296C17.4165 59.7398 18.0314 59.303 18.0314 59.303L18.0356 59.3073Z" fill="#02092B"/>
<path id="Vector_37" d="M23.4319 51.0547C23.4319 51.0547 23.169 48.5952 23.9238 47.0135C24.6744 45.4317 23.8899 46.4155 24.2376 47.3654C24.5853 48.3111 24.4539 46.7633 25.4292 45.4784C26.4045 44.1935 26.5953 44.2826 26.5953 44.2826C26.5953 44.2826 24.721 46.6148 24.9839 47.7259C25.2511 48.8411 25.9126 50.3423 26.6208 51.3854C27.3289 52.4243 28.0795 53.5311 28.0795 54.905C28.0795 56.279 27.9014 57.5087 28.0795 59.6587C28.2576 61.8086 29.7333 64.8236 30.31 65.2222C30.8867 65.6208 28.0371 64.8151 27.5918 60.5661C27.1508 56.3171 27.4137 55.3673 27.4137 55.3673C27.4137 55.3673 27.3756 53.3827 26.4893 52.2462C25.1663 50.5543 25.3359 49.7443 23.962 51.3812L23.4277 51.0504L23.4319 51.0547Z" fill="#02092B"/>
<path id="Vector_38" d="M27.5198 43.2471C27.5198 43.2471 24.7635 45.7744 25.6922 47.5894C26.6209 49.4043 28.3043 50.863 28.792 52.237C29.2797 53.6109 29.6571 54.2724 29.6019 55.6887C29.5426 57.1051 29.233 59.0981 28.9701 60.0692C28.7029 61.0445 28.9955 63.8729 29.6019 64.7592C30.2083 65.6455 30.8274 65.9974 30.8274 65.9974C30.8274 65.9974 29.5426 64.3139 29.4111 62.6771L29.2797 61.0403C29.2797 61.0403 29.4578 62.147 30.6069 62.499C31.7561 62.851 33.041 62.851 33.7916 63.2496C34.5421 63.6482 34.7669 64.068 34.8517 64.7083C34.9407 65.3486 35.3817 63.9577 35.0298 62.9824C34.6736 62.0071 34.364 61.8757 33.0834 61.2989C31.7985 60.7222 30.8274 60.1455 30.6069 59.1278C30.3864 58.1101 30.255 57.58 30.3186 56.2527C30.3864 54.9255 30.8571 53.8611 30.3271 52.8434C29.797 51.8256 28.1305 50.3415 27.1128 48.6919C26.095 47.0466 25.3529 46.3766 27.5241 43.2344L27.5198 43.2471Z" fill="#02092B"/>
<path id="Vector_39" d="M28.0608 42.3281C28.0608 42.3281 27.3315 45.5127 28.3492 47.5906C29.3669 49.6727 29.4984 51.2798 29.8079 52.7343C30.1175 54.1846 29.1888 52.2382 29.1888 52.2382L28.082 50.6777C28.082 50.6777 25.8006 45.2032 28.0608 42.3281Z" fill="#02092B"/>
<path id="Vector_40" d="M43.3494 53.558C43.3494 53.558 44.1932 51.0603 44.1466 49.2284C44.0999 47.3965 43.3239 44.3009 43.0822 43.6945C42.726 42.8083 42.62 42.4097 42.1323 41.6591C41.6447 40.9085 40.3386 39.4922 40.3386 39.4922C40.3386 39.4922 42.9507 44.284 42.8151 47.3541C42.6836 50.4242 41.7973 52.1247 41.7973 52.1247L41.0425 53.5622C41.0425 53.5622 38.829 56.8231 39.5838 56.0895C39.9866 55.6994 41.6192 56.2888 42.5479 55.6909C43.4766 55.093 43.3451 53.5622 43.3451 53.5622L43.3494 53.558Z" fill="#02092B"/>
<path id="Vector_41" d="M40.8325 54.5902C40.8325 54.5902 39.4586 56.9395 37.9999 57.8003C36.5369 58.6611 36.7617 58.6187 36.7617 58.6187C36.7617 58.6187 36.0535 58.5297 36.274 57.601C36.4945 56.6723 36.6556 55.7436 37.1942 55.3662C37.7327 54.9888 39.9039 53.7421 40.4763 52.1307C41.0531 50.5193 40.8325 51.3802 40.8325 51.3802C40.8325 51.3802 39.9929 53.8821 38.1313 54.3655C36.274 54.8531 35.3877 55.362 35.3877 55.362C35.3877 55.362 38.1313 54.8404 38.971 53.564C39.8106 52.2876 40.5399 51.2021 40.8707 50.3243C41.3329 49.1115 41.4941 47.674 41.405 45.1636C41.3372 43.2554 40.5357 39.8672 40.5357 39.8672C40.5357 39.8672 42.7323 44.8371 42.2192 48.5263C41.7061 52.2155 40.9767 54.3485 40.8283 54.5902H40.8325Z" fill="#02092B"/>
<path id="Vector_42" d="M41.4486 54.8548C41.4486 54.8548 42.1992 56.8436 43.4416 57.5094C44.6799 58.1752 44.8198 58.2218 45.8333 57.8656C46.8553 57.5094 47.8815 56.814 48.3988 56.1991C49.107 55.3637 46.6772 59.2353 44.154 58.6162C41.6309 57.9971 39.5022 54.4053 41.4528 54.8506L41.4486 54.8548Z" fill="#02092B"/>
<path id="Vector_43" d="M39.4336 55.125C39.4336 55.125 39.4336 56.6558 40.6888 57.7965C41.6938 58.7082 42.508 58.9669 43.4409 59.0135C44.3696 59.056 46.617 58.3435 47.287 57.5082C47.957 56.6728 45.6035 59.6539 42.9235 59.6539C40.2435 59.6539 38.7509 57.9492 38.4837 56.9357C38.2208 55.918 39.4336 55.1292 39.4336 55.1292V55.125Z" fill="#02092B"/>
<path id="Vector_44" d="M36.8466 57.8672C36.8466 57.8672 38.0085 60.191 39.7683 60.0341C41.5239 59.8772 42.1133 59.309 42.1133 59.309C42.1133 59.309 36.7448 61.0136 36.8466 57.8672Z" fill="#02092B"/>
<path id="Vector_45" d="M34.5865 62.8188C34.5865 62.8188 35.0275 61.8011 33.9674 61.0929C32.9031 60.3847 32.1016 60.4823 31.7072 59.3034C31.3086 58.1246 31.4019 56.8439 31.491 56.4453C31.58 56.0467 30.5326 58.2518 30.3248 59.6511C30.117 61.0463 29.8711 59.6511 29.8711 59.6511C29.8711 59.6511 31.2662 56.6234 31.4019 55.3597C31.5334 54.1003 31.5334 52.9935 30.9609 51.7977C30.3842 50.6019 29.9813 50.1906 29.7227 49.6223C29.5022 49.1347 29.5022 48.787 29.0145 47.5954C28.5268 46.3995 28.3487 46.0476 28.3487 46.0476C28.3487 46.0476 27.0639 43.5499 28.3487 41.8537C29.6336 40.1618 28.7898 41.3109 28.7898 41.3109C28.7898 41.3109 28.0477 42.8163 28.2639 44.0969C28.4802 45.3818 29.2774 46.972 29.2774 46.972L29.5446 47.3537C29.5446 47.3537 29.5827 45.9119 29.8753 45.1571C30.1679 44.4065 29.8075 46.6709 29.8753 47.3537C29.9432 48.0321 30.2103 49.4273 30.9609 50.6782C31.7115 51.9292 31.8896 52.2387 31.9362 53.1674C31.9786 54.0961 32.0677 54.8509 32.0677 54.8509C32.0677 54.8509 32.8182 55.7795 32.8649 56.9287L32.9073 58.0821C32.9073 58.0821 33.6155 56.3647 33.484 54.8127C33.3525 53.2607 33.0854 51.874 33.0854 51.874C33.0854 51.874 34.0607 54.0579 33.8826 55.364C33.7045 56.6701 33.484 58.6843 33.484 58.6843C33.484 58.6843 33.8826 59.8123 34.4127 60.5628C34.9427 61.3134 35.1802 61.5339 35.1675 62.5559C35.1548 63.5736 34.9427 64.0825 34.9427 64.0825L34.5908 62.823L34.5865 62.8188Z" fill="#02092B"/>
<path id="Vector_46" d="M36.7088 57.8697C36.7088 57.8697 35.7335 57.7637 36.0897 56.7544C36.4416 55.7452 37.4297 54.7148 37.4297 54.7148L36.3102 55.1303C36.3102 55.1303 35.7335 55.7791 35.7801 56.2922C35.8268 56.8053 35.3815 56.1947 35.5596 54.8208C35.7377 53.4468 35.8692 53.1797 35.8692 53.1797C35.8692 53.1797 34.7624 54.7826 35.3815 56.6569C36.0006 58.5355 36.5773 58.5482 36.6197 60.0451C36.6622 61.542 36.3272 62.424 35.6911 63.0473C35.0508 63.6707 34.8599 63.8064 34.8599 63.8064C34.8599 63.8064 36.395 63.4968 36.8403 61.6141C37.2855 59.7313 37.0099 58.7475 36.7088 57.8739V57.8697Z" fill="#02092B"/>
<path id="Vector_47" d="M34.2517 55.1214C34.2517 55.1214 34.5909 56.4911 35.1634 57.7929C35.7359 59.0948 36.4483 60.2143 35.9564 61.7324C35.4645 63.2505 34.8581 63.789 34.8581 63.789C34.8581 63.789 35.9564 61.8808 35.3797 60.5535C34.803 59.2262 34.4934 58.6538 34.2305 57.7887C33.9676 56.9236 33.4926 55.3377 34.2475 55.1172L34.2517 55.1214Z" fill="#02092B"/>
<path id="Vector_48" d="M39.1911 45.4685C39.1911 45.4685 39.7296 44.5483 40.3402 42.1058C40.8873 39.9219 40.9594 38.5649 39.8526 37.0172C38.7458 35.4694 37.0963 34.5704 34.4544 33.5272C31.8126 32.4841 30.7185 32.1745 29.4676 31.3137C28.2718 30.491 27.7799 30.1094 27.7799 30.1094C27.7799 30.1094 28.0852 31.3137 30.163 32.5689C32.0034 33.6799 37.4821 34.7909 38.8391 36.9748C39.7296 38.4038 40.0731 37.9925 39.1911 45.4727V45.4685Z" fill="#02092B"/>
<path id="Vector_49" d="M39.8124 43.0391C39.8124 43.0391 40.0287 45.9862 39.1 47.5976C38.1713 49.209 37.4886 50.672 36.1486 50.6847C34.8086 50.6974 34.4566 50.6847 34.4566 50.6847L35.169 51.7575C35.169 51.7575 37.2893 52.0883 38.2646 50.6847C39.2399 49.2811 39.9015 46.9785 39.8803 46.9785C39.8591 46.9785 39.1933 51.2232 37.196 52.2452C35.415 53.1569 35.2581 52.7329 35.2581 52.7329C35.2581 52.7329 35.0164 55.3662 35.203 55.3662C35.3896 55.3662 38.2222 53.9923 39.4392 52.1307C40.6435 50.2861 41.3093 49.7263 39.8166 43.0391H39.8124Z" fill="#02092B"/>
<path id="Vector_50" d="M33.6846 56.9376C33.6846 56.9376 36.4494 52.8243 35.3851 51.3825C34.3249 49.945 33.4811 48.8086 32.5948 47.8502C31.7085 46.8918 30.9028 45.9165 30.3304 44.8098C29.7622 43.703 29.8682 40.6498 29.8682 40.6498C29.8682 40.6498 29.4059 43.7496 29.6731 44.2797C29.9403 44.8098 29.4102 43.7496 29.4102 43.7496C29.4102 43.7496 29.143 42.9143 29.1006 42.3375C29.0582 41.7608 29.0582 40.5226 29.143 39.5049C29.2321 38.4872 29.495 37.6094 29.495 37.6094C29.495 37.6094 28.5324 39.5982 28.5451 40.7474C28.5536 41.8923 28.3289 42.7828 29.0964 43.9786C29.8682 45.1744 32.192 49.1987 32.5058 49.9874C33.1291 51.5691 33.9221 55.1566 33.6804 56.9461L33.6846 56.9376Z" fill="#02092B"/>
<path id="Vector_51" d="M31.7111 41.4816C31.7111 41.4816 31.8935 43.5595 32.9112 45.1539C33.9289 46.7483 35.2732 49.0509 34.8661 50.8616C34.459 52.6766 34.6795 51.9217 34.6795 51.9217C34.6795 51.9217 35.9686 48.224 35.1671 46.5321C34.3699 44.8401 33.5261 43.8902 32.9069 42.7495C32.2878 41.6088 31.3592 40.3112 30.6934 38.861C30.0276 37.4065 29.8707 36.1683 29.8707 36.1683L29.1456 34.1328C29.1456 34.1328 29.6502 37.186 29.6333 38.3818C29.6163 39.5776 29.5018 41.3841 29.5018 41.5198C29.5018 41.6555 29.875 44.4033 29.875 44.4033C29.875 44.4033 29.9895 42.0032 30.1676 40.9219C30.3457 39.8448 30.1252 44.8528 31.0963 46.4854C32.0716 48.118 29.7605 44.7129 31.7111 41.4816Z" fill="#02092B"/>
<path id="Vector_52" d="M28.4733 31.0214C28.4733 31.0214 29.1517 32.425 30.831 33.2222C32.5145 34.0195 34.9019 35.1262 36.1528 36.1439C37.5649 37.2931 38.4851 38.137 39.1085 40.4353C39.7276 42.7379 39.6046 44.3917 38.8455 46.5502C38.0907 48.7086 36.0595 50.515 35.6312 50.8797C35.2029 51.2402 38.7353 46.2109 37.9126 42.0722C37.5649 40.3293 36.0977 38.3151 35.1733 37.3822C32.6926 34.8845 28.5284 32.9551 28.5284 30.8984L28.4733 31.0214Z" fill="#02092B"/>
<path id="Vector_53" d="M35.6288 50.8739C35.6288 50.8739 37.5625 47.5451 37.5625 44.6319C37.5625 41.7187 37.1554 40.9511 35.1666 38.8733C33.1778 36.7912 32.7495 36.5368 32.0753 35.871C31.0491 34.8533 29.8957 34.2723 29.1451 32.9451C28.3945 31.622 28.3479 31.0156 28.3479 31.0156C28.3479 31.0156 28.615 33.7465 30.871 37.1559C33.1269 40.5653 35.9596 43.6354 35.6288 46.5486C35.2981 49.4618 34.679 51.7263 34.679 51.7263L35.6288 50.8782V50.8739Z" fill="#02092B"/>
<path id="Vector_54" d="M16.3682 49.2031C16.3682 49.2031 16.224 50.0724 17.1103 50.8908C17.9965 51.7135 18.5266 51.4421 18.3485 52.8627C18.1704 54.279 18.0686 53.9907 18.0686 53.9907C18.0686 53.9907 18.8107 53.3164 17.7803 52.5065C16.7498 51.6965 15.2741 51.1962 14.6084 50.6958C14.0571 50.2802 15.1427 50.6831 16.3682 49.2031Z" fill="#02092B"/>
<path id="Vector_55" d="M24.8383 24.973C24.8383 24.973 26.1231 24.7525 27.2299 24.973C28.3367 25.1935 29.7064 25.4607 30.0202 26.2579C30.3297 27.0551 30.5078 27.4071 30.5078 27.4071C30.5078 27.4071 30.0668 26.1688 28.9134 26.3469C27.7642 26.525 26.2588 26.3893 26.2588 26.3893C26.2588 26.3893 25.0206 26.6098 24.8425 24.973H24.8383Z" fill="#02092B"/>
<path id="Vector_56" d="M23.822 24.2651C23.822 24.2651 23.6905 23.9555 23.1562 23.9089C22.6261 23.8665 22.2275 23.6417 22.1385 23.4679C22.0494 23.2898 22.2699 23.2007 21.2098 22.8488L20.1497 22.4926C20.1497 22.4926 20.9045 22.5816 21.5236 22.4926C22.1427 22.4035 22.1427 22.0515 22.6304 21.742C23.118 21.4324 23.9577 21.2119 24.0467 21.742C24.1358 22.2721 23.6948 22.306 23.6948 22.8445C23.6948 23.3831 24.1824 23.646 23.8262 24.2651H23.822Z" fill="#02092B"/>
<path id="Vector_57" d="M21.4711 17.2736C20.9537 17.1252 21.2506 19.0886 20.6315 19.5296C20.0124 19.9706 20.1438 20.2801 20.1438 20.2801C20.1438 20.2801 20.0548 20.8102 20.9834 19.9282C21.9121 19.0419 22.8408 17.6722 21.4711 17.2736Z" fill="#02092B"/>
<path id="Vector_58" d="M19.8178 20.4375C19.8178 20.4375 18.6559 22.2948 18.6559 22.9776C18.6559 23.2433 18.9329 23.4539 19.487 23.6094C20.3181 23.8426 21.1578 24.2624 21.1578 24.2624C21.1578 24.2624 21.9041 23.919 22.1755 24.2624C22.4426 24.6059 23.1423 25.4031 23.5409 25.7339C23.9395 26.0647 24.0625 26.264 24.0625 26.264C24.0625 26.264 23.9395 26.3954 23.6088 26.264C23.278 26.1325 22.8794 25.8314 22.8794 25.8314C22.8794 25.8314 22.3154 26.264 21.8193 26.4972C21.3231 26.7304 21.0899 26.7643 20.8906 26.7304C20.6913 26.6965 21.2722 26.3785 21.1662 26.141C21.056 25.9035 21.7853 25.5685 21.5224 25.1402C21.2553 24.7077 21.1662 24.8773 21.1662 24.8773C21.1662 24.8773 20.6404 25.6109 20.4072 25.6109C19.9322 25.6109 19.9322 24.8773 19.9322 24.8773C19.9322 24.8773 19.7329 24.4787 19.699 24.8773C19.6651 25.2759 19.5676 25.5728 19.8983 25.7721C20.2291 25.9714 19.9662 26.6032 19.9662 26.6032C19.9662 26.6032 19.4022 26.3488 19.3343 26.1452C19.2665 25.9417 19.3683 26.1495 19.0036 26.1452C18.6389 26.141 18.4057 26.4039 18.4057 26.4039L17.6424 27.4089C17.6424 27.4089 17.5448 27.0018 17.6424 26.8322C17.7441 26.6668 18.4396 25.8357 18.4396 25.8357L18.5074 25.0724L17.9774 25.6703L17.8459 26.141C17.8459 26.141 17.6127 27.129 16.8494 27.0993C16.0861 27.0654 15.5221 26.9679 15.5221 26.9679C15.5221 26.9679 14.7928 26.9 14.1948 27.0018C13.5969 27.0993 13.1008 27.269 13.1008 27.269C13.1008 27.269 13.7962 26.5735 14.3941 26.5396C14.9921 26.5057 15.2889 26.4081 15.2889 26.4081C15.2889 26.4081 15.9547 26.4887 15.9547 26.1495C15.9547 25.8102 16.0522 24.2752 16.0522 24.2752C16.0522 24.2752 16.4169 24.9155 16.4169 25.5812C16.4169 26.247 16.349 26.476 16.349 26.476C16.349 26.476 16.8452 27.006 17.2141 26.3785C17.5788 25.7466 17.248 25.2208 17.9434 24.8858C18.6389 24.5508 18.164 24.1225 18.5838 24.0886C19.0036 24.0547 18.4396 24.1861 18.2742 23.4228C18.1088 22.6595 18.2064 21.9259 19.8347 20.4502L19.8178 20.4375Z" fill="#02092B"/>
<path id="Vector_59" d="M21.5473 25.9977C21.5473 25.9977 19.8214 26.3624 19.4228 25.4676C19.0242 24.5729 19.4822 26.2351 19.4822 26.2351C19.4822 26.2351 20.3854 27.325 21.8102 26.4981C23.2393 25.6669 21.5431 26.0019 21.5431 26.0019L21.5473 25.9977Z" fill="#02092B"/>
<path id="Vector_60" d="M15.0065 22.3838C15.0065 22.3838 14.4764 22.8502 14.7393 23.2785C15.0065 23.711 15.1719 23.9231 15.1719 23.9231C15.1719 23.9231 14.2432 23.9443 14.01 23.4439C13.7767 22.9477 13.8107 21.6501 15.0065 22.3838Z" fill="#02092B"/>
<path id="Vector_61" d="M23.7969 26.6016C23.7969 26.6016 23.5636 27.1995 22.7028 27.2673C21.8378 27.3352 21.0278 27.4666 21.1508 27.7635C21.2738 28.0603 20.6123 27.8313 20.3451 28.2596C20.0779 28.6879 19.849 29.0907 20.3451 29.0907C20.8412 29.0907 23.7969 28.0942 23.7969 26.6016Z" fill="#02092B"/>
<path id="Vector_62" d="M25.3242 27.8379C25.3242 27.8379 24.9468 27.6895 24.8366 28.0202C24.7263 28.351 24.3955 28.4867 24.3955 28.4867C24.3955 28.4867 23.7001 29.4154 22.8011 29.6825C21.9064 29.9497 21.0752 30.3483 21.4738 30.8105C21.8724 31.2769 22.0972 31.3066 22.0972 31.3066C22.0972 31.3066 21.7325 31.1752 22.165 30.9759C22.5976 30.7766 23.3439 30.4119 23.3439 30.4119H23.7934C23.7934 30.4119 23.7595 30.7426 24.192 30.4119C24.6245 30.0811 25.1546 29.9793 25.1207 29.3814C25.0867 28.7835 24.7221 28.686 25.32 27.8379H25.3242Z" fill="#02092B"/>
<path id="Vector_63" d="M17.5938 17.2656C17.5938 17.2656 16.7965 19.5937 15.1724 20.4418C13.5483 21.2899 12.8825 21.8199 12.8825 21.8199C12.8825 21.8199 11.1906 22.8165 11.322 23.4144L11.4535 24.0123C11.4535 24.0123 10.6436 23.2151 11.3136 22.5832C11.9836 21.9514 13.1115 21.1881 13.6458 20.9549C14.1759 20.7216 15.605 19.793 15.9696 19.2968C16.3343 18.8007 17.263 17.4225 17.5938 17.2656Z" fill="#02092B"/>
<path id="Vector_64" d="M18.76 34.7031C18.76 34.7031 18.5946 36.3951 19.854 36.8955C21.1134 37.3916 22.0506 37.2262 21.9319 38.7528C21.8131 40.2794 21.6138 41.3098 21.6138 41.3098C21.6138 41.3098 21.3806 42.37 21.7792 42.7686C22.1778 43.1672 22.1651 43.2011 22.1057 43.6972C22.0464 44.1934 22.076 43.4004 21.7114 43.1333C21.3467 42.8661 21.0159 42.6668 21.0159 42.0731C21.0159 41.4795 21.6477 38.9182 21.0838 38.3881C20.5198 37.8581 19.9558 37.4934 19.854 37.4595C19.7522 37.4255 17.861 37.0269 18.76 34.7031Z" fill="#02092B"/>
<path id="Vector_65" d="M17.2591 15.2811L17.5898 15.6458C17.5898 15.6458 17.2252 15.3489 16.9919 15.6458C16.7587 15.9426 16.7926 16.0444 16.4619 15.9765C16.1311 15.9087 15.9954 15.9977 15.9954 15.9977C15.9954 15.9977 15.3636 17.2063 15.1643 17.5031C14.965 17.7999 14.3671 18.2409 13.6377 18.8516C12.9083 19.4622 11.581 20.6368 11.581 20.6368L11.0425 21.4213L10.5972 21.6121C10.5972 21.6121 10.152 22.5069 10.2877 22.8419C10.4234 23.1769 10.5548 23.2787 10.8177 23.5755C11.0849 23.8723 11.2164 24.2413 10.8517 24.5381C10.487 24.8349 10.2665 24.8731 10.2665 24.8731C10.2665 24.8731 9.25724 25.3183 8.65933 26.0053C8.06142 26.6965 7.99358 26.8068 7.99358 26.8068L7.59921 27.4047C7.59921 27.4047 7.53136 27.9559 6.76807 28.257C6.00478 28.5539 5.73762 28.9864 5.20756 29.2875C4.6775 29.5843 4.44427 29.72 4.27889 30.1186C4.11351 30.5172 3.78275 30.6147 3.78275 30.6147H3.5156C3.5156 30.6147 3.54952 31.0134 3.04914 31.4798C2.553 31.9463 1.92117 32.4424 1.92117 32.4424L1.55648 33.0064C1.55648 33.0064 1.3911 33.4728 1.95509 33.5365C2.51908 33.6043 3.11699 33.3032 3.61313 33.2057C4.10927 33.1082 4.41034 33.1718 4.41034 33.1718C4.41034 33.1718 3.7149 33.8672 3.57921 33.8333C3.44775 33.7994 2.94737 34.4651 2.218 34.1301C1.48863 33.7994 1.32325 33.634 1.32325 33.634C1.32325 33.634 1.58616 34.8637 1.88724 35.2284C2.18832 35.5931 2.98129 36.2249 3.14667 36.8228C3.31205 37.4208 3.31205 37.883 3.31205 37.883C3.31205 37.883 3.04914 37.3529 2.71414 36.9543C2.38338 36.5557 2.48091 37.6837 2.61237 38.0823C2.74383 38.4809 3.07883 38.7396 2.97705 39.2739C2.87952 39.8082 2.8456 40.0753 2.94313 40.9361C3.0449 41.8012 3.21028 42.8953 3.47319 43.3575C3.74034 43.8239 3.70642 44.0232 3.70642 44.0232C3.70642 44.0232 3.80819 44.7865 3.43927 44.354C3.07458 43.9215 2.80743 43.5907 2.7099 42.7596C2.60813 41.9284 2.54452 40.6351 2.5106 39.8718C2.47667 39.1085 2.44275 39.0746 2.31129 38.7099C2.17984 38.3452 1.94661 37.5819 2.07806 37.0179L2.20952 36.4539C2.20952 36.4539 1.64554 36.0214 1.31478 34.9952C0.984016 33.9647 1.04762 33.5365 1.04762 33.5365C1.04762 33.5365 0.937371 32.841 1.04338 32.6078C1.1494 32.3746 2.97281 30.6826 2.97281 30.6826C2.97281 30.6826 3.17211 30.0211 3.5368 30.0211C3.90148 30.0211 4.03294 29.0924 4.20256 29.0924C4.37218 29.0924 6.1956 28.2613 6.52636 27.816C6.85712 27.3665 7.88756 26.0138 7.88756 26.0138C7.88756 26.0138 9.08339 24.4915 9.8806 24.2709C10.6778 24.0504 10.4446 23.9275 10.4446 23.9275C10.4446 23.9275 10.4446 23.8469 10.0799 23.4822C9.71522 23.1175 9.54984 23.1175 9.6813 22.685C9.81275 22.2525 9.84668 21.6546 10.2114 21.4256C10.576 21.1923 10.7075 20.8192 10.8093 20.6411C10.9068 20.463 11.5386 20.0304 11.5386 20.0304C11.5386 20.0304 14.4476 17.8084 14.5197 17.5073C14.5918 17.2105 14.9904 16.6423 14.9904 16.6423L15.7876 15.5143C15.7876 15.5143 16.2541 14.751 17.2464 15.2811H17.2591Z" fill="#02092B"/>
<path id="Vector_66" d="M3.78696 33.4037C3.78696 33.4037 3.25689 33.8024 3.09151 34.4978C2.92613 35.1932 2.89221 34.8286 3.09151 35.6258C3.29082 36.423 3.32474 37.8817 3.32474 37.8817C3.32474 37.8817 3.08727 38.3779 3.37138 39.1412C3.6555 39.9044 3.75727 40.901 3.78696 41.6643C3.82088 42.4275 3.98626 43.687 3.71911 44.022C3.45196 44.3527 2.68866 45.116 2.68866 45.8157C2.68866 46.5154 2.58689 45.7182 3.01942 45.3493C3.45195 44.9846 4.21525 44.9167 4.41455 44.4842C4.61385 44.0517 4.81315 43.3562 4.881 43.123L4.94885 42.8898C4.94885 42.8898 5.14816 43.1866 5.61461 43.3562C6.08107 43.5216 7.04366 43.8481 7.04366 43.8481C7.04366 43.8481 7.97234 44.251 8.40487 44.4842C8.8374 44.7174 9.76607 45.3153 10.029 45.3153C10.2919 45.3153 10.012 45.8454 11.0509 45.9472C12.0856 46.0447 13.4171 46.0913 13.4171 46.0913C13.4171 46.0913 15.0752 46.1465 15.5416 46.4772C16.0081 46.808 17.0004 46.8419 17.0004 46.8419H19.4896L19.8203 46.4772C19.8203 46.4772 19.4938 46.4094 19.2606 46.244C19.0231 46.0786 19.2606 45.9768 19.1249 45.4468C18.9892 44.9167 18.5736 43.9881 18.5736 43.9881C18.5736 43.9881 18.7602 42.7286 18.2301 42.4275C17.7001 42.1307 17.6661 41.5964 17.3651 41.1978C17.0682 40.7992 16.1438 40.7483 16.3685 41.4946C16.5678 42.1562 16.4025 42.5251 16.1353 42.8219C15.8682 43.1187 14.9734 44.1492 13.4808 44.2806C11.9881 44.4121 12.0051 44.8574 11.6234 44.8786C10.3937 44.9464 10.8262 45.2051 8.80347 44.0474C6.78075 42.8898 7.10727 43.0933 6.47968 43.1187C6.20404 43.1272 5.551 42.5208 5.551 42.5208C5.551 42.5208 4.9531 42.453 4.71987 41.2911C4.48664 40.1292 4.05411 39.332 4.02442 38.3058C3.9905 37.2753 3.65974 37.1778 4.22373 36.7453C4.78772 36.3127 5.51708 36.0498 6.21677 35.8505C6.91221 35.6512 7.74335 35.2187 8.14195 34.9855C8.54056 34.7522 9.01974 34.9515 9.31234 34.6886C9.60493 34.4215 9.93569 33.9253 9.90177 33.3953C9.86784 32.8652 9.90177 32.3648 9.90177 32.3648C9.90177 32.3648 10.2325 32.0001 10.7668 31.4998C11.2969 31.0036 11.5301 30.4057 11.5301 30.4057C11.5301 30.4057 11.6616 29.2777 11.564 28.7477C11.4623 28.2176 11.2587 27.9844 11.2587 27.9844L11.0552 28.383C11.0552 28.383 11.6616 29.7781 10.7626 30.5075C9.86784 31.2368 10.0332 31.8348 9.53284 31.9662C9.0367 32.0977 9.03671 32.4624 8.23949 32.5302C7.44227 32.598 4.1898 32.9585 3.7912 33.391L3.78696 33.4037Z" fill="#02092B"/>
<path id="Vector_67" d="M2.88953 45.1313C2.88953 45.1313 4.21681 44.6776 4.08536 45.1313C3.9539 45.5851 3.45352 46.1491 3.32206 46.5138L3.19061 46.8784C3.19061 46.8784 3.52137 46.3484 3.78852 46.5138C4.05567 46.6791 4.02174 46.5816 3.82244 47.1117C3.62314 47.6417 3.38991 47.7774 3.3263 48.3075L3.25846 48.8376C3.25846 48.8376 3.55529 47.6078 3.85637 47.9089C4.1532 48.2057 4.02175 48.2736 3.9539 48.8376C3.88605 49.4015 3.65707 49.8001 3.78852 50.2963C3.91998 50.7924 3.98783 49.9316 4.25074 49.5669C4.51789 49.2022 4.88257 49.4015 4.91649 50.2327C4.95042 51.0638 5.08187 51.5939 5.1158 51.6914C5.14972 51.7889 4.55181 51.6575 4.51788 51.0596C4.48396 50.4617 4.45004 50.0291 4.45004 50.0291C4.45004 50.0291 4.1532 50.5931 4.00479 50.8603L3.85637 51.1274C3.85637 51.1274 3.32631 50.4956 3.42384 49.6984C3.52561 48.9012 3.58922 48.5025 3.58922 48.5025L3.25846 49.1344C3.25846 49.1344 2.99131 49.2658 3.05915 48.405C3.127 47.5442 3.32206 47.1117 3.32206 47.1117C3.32206 47.1117 2.89377 47.4085 2.88953 47.5103C2.88953 47.612 2.85561 46.2508 3.25421 45.7844C3.65282 45.3179 3.33479 45.4027 3.15668 45.5172C2.69023 45.8141 2.3934 46.5392 2.89378 45.1313H2.88953Z" fill="#02092B"/>
<path id="Vector_68" d="M14.6055 50.6913C14.6055 50.6913 14.3383 49.6948 14.0415 50.2588C13.7446 50.8228 13.6089 51.3529 13.6089 51.3529C13.6089 51.3529 13.4096 50.3224 12.7778 51.0857L12.146 51.849C12.146 51.849 11.9467 51.6158 11.6498 52.1798C11.3488 52.7437 10.9544 53.3756 10.9841 53.4731C11.018 53.5706 10.8526 52.8752 10.6194 52.4427C10.3862 52.0101 10.3522 51.4843 10.1529 51.7812C9.95363 52.078 9.82218 52.3791 9.82218 52.3791C9.82218 52.3791 9.82218 51.8193 9.45749 51.7812C9.09281 51.7472 9.3006 51.9805 9.3006 51.9805C9.3006 51.9805 8.52882 52.0483 8.4949 52.6759C8.46097 53.3077 8.29559 53.7063 8.29559 53.7063C8.29559 53.7063 8.09629 53.4731 7.89698 53.1763C7.69768 52.8794 7.7316 52.1162 7.7316 52.1162C7.7316 52.1162 7.66376 51.1536 7.46445 51.1875C7.26515 51.2214 6.96832 51.4462 6.96832 51.8956C6.96832 52.3451 6.87078 51.1196 6.60363 51.0518C6.33648 50.9839 6.23895 50.9839 6.23895 51.4843V51.9805C6.23895 51.9805 6.03964 51.4165 5.90819 51.0518C5.77673 50.6871 5.74705 49.9069 5.37813 50.5556C5.0092 51.2044 5.11521 51.6836 5.11521 51.6836L5.51382 50.9203C5.51382 50.9203 5.81489 52.2815 6.24319 52.5487C6.67572 52.8158 6.47642 52.4512 6.51034 52.2179C6.54426 51.9847 6.6418 52.9812 6.8411 52.9134C7.0404 52.8455 7.33724 52.4808 7.37116 52.0822C7.40509 51.6836 7.37116 53.0787 7.63831 53.5113C7.90546 53.9438 8.53306 54.6053 8.53306 54.6053C8.53306 54.6053 8.53306 53.5749 8.86382 53.0448C9.19458 52.5148 9.55927 52.4808 9.55927 52.4808C9.55927 52.4808 9.47869 52.7141 9.85186 53.0448C10.225 53.3756 10.0257 53.1127 10.1232 52.6462C10.225 52.1798 10.789 53.2781 10.8187 53.9396C10.8526 54.6053 11.3488 53.2738 11.9806 52.6462C12.6124 52.0144 12.8753 51.5522 12.8753 51.5522C12.8753 51.5522 13.5411 51.3868 13.0746 52.0483C12.6124 52.7098 14.0033 51.5182 14.139 50.9882C14.2705 50.4581 14.2069 52.1162 14.6055 50.6913Z" fill="#02092B"/>
<path id="Vector_69" d="M11.9842 42.8946C11.9842 43.0049 12.0733 43.0939 12.1835 43.0939C12.2938 43.0939 12.3828 43.0049 12.3828 42.8946C12.3828 42.7844 12.2938 42.6953 12.1835 42.6953C12.0733 42.6953 11.9842 42.7844 11.9842 42.8946Z" fill="#02092B"/>
<path id="Vector_70" d="M9.3042 42.1741C9.3042 42.3267 9.42717 42.4497 9.57983 42.4497C9.73249 42.4497 9.85547 42.3267 9.85547 42.1741C9.85547 42.0214 9.73249 41.8984 9.57983 41.8984C9.42717 41.8984 9.3042 42.0214 9.3042 42.1741Z" fill="#02092B"/>
<path id="Vector_71" d="M6.80333 42.2292C6.80333 42.4115 6.95174 42.56 7.13408 42.56C7.31643 42.56 7.46484 42.4115 7.46484 42.2292C7.46484 42.0469 7.31643 41.8984 7.13408 41.8984C6.95174 41.8984 6.80333 42.0469 6.80333 42.2292Z" fill="#02092B"/>
<path id="Vector_72" d="M9.84962 40.2062C9.84962 40.3377 9.95563 40.4437 10.0871 40.4437C10.2185 40.4437 10.3203 40.3377 10.3203 40.2062C10.3203 40.0748 10.2143 39.9688 10.0871 39.9688C9.95987 39.9688 9.84962 40.0748 9.84962 40.2062Z" fill="#02092B"/>
<path id="Vector_73" d="M7.13782 39.6381C7.13782 39.8417 7.29896 40.0028 7.5025 40.0028C7.70605 40.0028 7.86719 39.8374 7.86719 39.6381C7.86719 39.4388 7.70605 39.2734 7.5025 39.2734C7.29896 39.2734 7.13782 39.4388 7.13782 39.6381Z" fill="#02092B"/>
<path id="Vector_74" d="M5.48054 37.7187C5.48054 37.8841 5.612 38.0155 5.77738 38.0155C5.94276 38.0155 6.07422 37.8799 6.07422 37.7187C6.07422 37.5576 5.93852 37.4219 5.77738 37.4219C5.61624 37.4219 5.48054 37.5576 5.48054 37.7187Z" fill="#02092B"/>
<path id="Vector_75" d="M8.99327 38.3004C8.99327 38.4615 9.12472 38.593 9.28162 38.593C9.43852 38.593 9.57422 38.4615 9.57422 38.3004C9.57422 38.1393 9.44276 38.0078 9.28162 38.0078C9.12048 38.0078 8.99327 38.1393 8.99327 38.3004Z" fill="#02092B"/>
<path id="Vector_76" d="M11.9842 39.4727C11.9842 39.583 12.0733 39.672 12.1835 39.672C12.2938 39.672 12.3828 39.583 12.3828 39.4727C12.3828 39.3625 12.2938 39.2734 12.1835 39.2734C12.0733 39.2734 11.9842 39.3625 11.9842 39.4727Z" fill="#02092B"/>
<path id="Vector_77" d="M12.3866 41.3165C12.3866 41.5073 12.5435 41.6642 12.7343 41.6642C12.9251 41.6642 13.082 41.5073 13.082 41.3165C13.082 41.1256 12.9251 40.9688 12.7343 40.9688C12.5435 40.9688 12.3866 41.1256 12.3866 41.3165Z" fill="#02092B"/>
<path id="Vector_78" d="M14.6043 40.7252C14.6043 40.8821 14.7315 41.0093 14.8842 41.0093C15.0368 41.0093 15.1641 40.8821 15.1641 40.7252C15.1641 40.5683 15.0368 40.4453 14.8842 40.4453C14.7315 40.4453 14.6043 40.5725 14.6043 40.7252Z" fill="#02092B"/>
<path id="Vector_79" d="M13.8952 38.6305C13.8952 38.8044 14.0394 38.9486 14.2132 38.9486C14.3871 38.9486 14.5312 38.8044 14.5312 38.6305C14.5312 38.4567 14.3871 38.3125 14.2132 38.3125C14.0394 38.3125 13.8952 38.4567 13.8952 38.6305Z" fill="#02092B"/>
<path id="Vector_80" d="M11.6155 37.4566C11.4117 37.4566 11.2465 37.2914 11.2465 37.0877C11.2465 36.8839 11.4117 36.7188 11.6155 36.7188C11.8192 36.7188 11.9844 36.8839 11.9844 37.0877C11.9844 37.2914 11.8192 37.4566 11.6155 37.4566Z" fill="#02092B"/>
<path id="Vector_81" d="M8.33457 36.5886C8.33457 36.7709 8.48299 36.9193 8.66533 36.9193C8.84768 36.9193 8.99609 36.7709 8.99609 36.5886C8.99609 36.4062 8.84768 36.2578 8.66533 36.2578C8.48299 36.2578 8.33457 36.4062 8.33457 36.5886Z" fill="#02092B"/>
<path id="Vector_82" d="M5.48054 40.2734C5.48054 40.4388 5.612 40.5702 5.77738 40.5702C5.94276 40.5702 6.07422 40.4345 6.07422 40.2734C6.07422 40.1123 5.93852 39.9766 5.77738 39.9766C5.61624 39.9766 5.48054 40.1123 5.48054 40.2734Z" fill="#02092B"/>
<path id="Vector_83" d="M14.6043 36.0732C14.6043 36.2301 14.7315 36.3531 14.8842 36.3531C15.0368 36.3531 15.1641 36.2258 15.1641 36.0732C15.1641 35.9205 15.0368 35.7891 14.8842 35.7891C14.7315 35.7891 14.6043 35.9163 14.6043 36.0732Z" fill="#02092B"/>
<path id="Vector_84" d="M16.4969 39.2047C16.4969 39.3531 16.6157 39.4718 16.7641 39.4718C16.9125 39.4718 17.0312 39.3531 17.0312 39.2047C17.0312 39.0562 16.9125 38.9375 16.7641 38.9375C16.6157 38.9375 16.4969 39.0562 16.4969 39.2047Z" fill="#02092B"/>
<path id="Vector_85" d="M11.6154 34.6122C11.6154 34.7691 11.7426 34.8964 11.8995 34.8964C12.0564 34.8964 12.1836 34.7691 12.1836 34.6122C12.1836 34.4553 12.0564 34.3281 11.8995 34.3281C11.7426 34.3281 11.6154 34.4553 11.6154 34.6122Z" fill="#02092B"/>
</g>
</svg>