<svg xmlns="http://www.w3.org/2000/svg" width="78" height="79" viewBox="0 0 78 79" fill="none">
<path d="M20.0941 47.0869C18.4888 47.1026 17.0322 47.5878 15.5904 48.2721C14.2615 48.9025 12.8339 49.3339 11.4476 49.8463C10.909 50.0454 10.3636 50.2275 9.72813 50.4495C9.70222 50.5403 9.64237 50.7514 9.54058 51.1102C9.29688 50.9057 9.02851 50.7859 8.97977 50.608C8.93905 50.4598 9.1192 50.2057 9.26788 50.0659C9.61646 49.738 10.0039 49.4506 10.2569 49.0302C10.474 49.0138 10.7294 49.0646 10.9034 48.9703C14.0017 47.2938 17.4573 46.2786 20.3347 44.1653C19.3883 43.8077 18.4734 43.9396 17.7207 44.3637C16.0093 45.3281 14.3077 46.2919 12.4359 46.929C11.7671 47.1565 11.0947 47.3761 10.424 47.5987C10.3802 47.5291 10.3371 47.459 10.2933 47.3894C11.0262 46.739 11.7585 46.0892 12.5291 45.4056C12.5211 45.5181 12.5124 45.6324 12.4884 45.9646C13.6624 45.2362 14.7334 44.5713 15.8038 43.907C15.7847 43.8434 15.765 43.7793 15.7459 43.7158H14.0832C14.0671 43.6528 14.0517 43.5899 14.0357 43.527C14.193 43.4586 14.3509 43.3915 14.5076 43.3207C15.4997 42.8742 16.6361 42.6969 17.3709 41.7707C17.5048 41.6019 17.8095 41.5638 18.0354 41.4651C17.8867 41.8965 17.7374 42.3273 17.551 42.8669C18.0829 42.5142 18.5135 42.2123 18.9632 41.9389C19.1237 41.8409 19.4358 41.709 19.4963 41.7695C19.9954 42.2656 20.5766 41.9969 21.1281 41.9951C20.9905 42.2063 20.8536 42.4174 20.7635 42.5554C21.0189 43.0339 21.249 43.4647 21.4792 43.8955C21.8129 44.9016 22.6545 44.5277 23.4022 44.5186C23.4386 44.541 23.475 44.5634 23.5108 44.5864C23.222 44.9821 22.9333 45.3771 22.5274 45.9343C21.9049 45.9755 21.0158 46.0342 20.1262 46.0922C20.1299 46.1576 20.133 46.2235 20.1367 46.2889C23.4553 46.71 26.7794 45.4884 30.2361 46.2913C29.8826 46.0523 29.6389 45.8871 29.2897 45.65C32.0518 45.1521 34.606 45.261 37.0072 46.5139C36.9973 46.618 36.9874 46.7221 36.9776 46.8267C36.2132 46.7608 35.4488 46.6954 34.6844 46.6295C34.6776 46.6694 34.6702 46.7087 34.6634 46.7487C35.1613 46.8346 35.6715 46.8782 36.1539 47.0173C36.658 47.1625 37.1947 47.3192 37.6075 47.6169C38.0196 47.9145 38.2954 48.3937 38.631 48.793C38.7056 48.7295 38.7797 48.6659 38.8543 48.6018C38.7248 48.1305 38.5946 47.6592 38.465 47.1873C39.003 47.6598 39.3978 48.2418 40.2301 48.2146C39.9765 47.9369 39.7452 47.6846 39.5138 47.4317L39.6175 47.2896C39.8587 47.3156 40.0999 47.341 40.4257 47.3761C39.8562 46.8546 38.8043 47.4033 38.5465 46.347C39.2806 46.4934 39.9728 46.6319 40.6651 46.7705C40.6774 46.7305 40.6891 46.6912 40.7015 46.6513C40.116 46.4922 39.5083 46.3857 38.9549 46.154C38.6507 46.0269 38.3324 45.7329 38.2065 45.4376C37.9529 44.8417 37.8265 44.1931 37.6186 43.4671C37.7981 43.4962 37.9314 43.5506 37.9604 43.5167C38.5415 42.8585 39.1332 43.4526 39.718 43.4889C40.0376 43.5089 40.3597 43.4925 40.6934 43.3213C40.3578 43.0956 40.0228 42.87 39.6872 42.6443C39.7137 42.5717 39.7409 42.4985 39.7674 42.4259C40.4337 42.4628 41.0994 42.4997 41.844 42.5408C40.0679 40.3785 35.1631 40.3767 31.8507 41.7319C32.6503 41.5874 33.4492 41.4428 34.411 41.2685C30.2398 43.0255 29.4175 43.2584 28.4044 43.043C29.3854 41.8027 30.3836 40.5189 31.4127 39.2599C31.5891 39.0439 31.897 38.932 32.2449 38.7063C32.2684 38.984 32.2795 39.1141 32.2955 39.3071C33.4764 39.3071 34.6621 39.3149 35.8473 39.3034C36.4235 39.298 36.7869 38.958 36.8751 38.4359C37.3095 35.8525 37.5723 33.2594 37.1848 30.5956C36.6771 30.6518 36.2249 30.702 35.7727 30.7523C36.2489 30.5835 36.7252 30.4141 37.3539 30.1914C36.8702 29.5767 36.455 29.0504 36.0361 28.5186C36.2496 28.4544 36.4846 28.3836 36.7283 28.3098C35.7412 26.5601 33.4178 26.1203 31.8007 26.9897C33.0642 30.7178 32.438 33.5891 30.892 35.1434C31.2529 35.1797 31.5799 35.1966 31.9007 35.2475C33.1525 35.4471 33.319 35.3449 33.6004 34.1433C33.6405 33.9715 33.6516 33.7924 33.6738 33.617C33.849 32.2357 33.8428 30.8714 33.1475 29.558C33.7885 29.2966 34.3204 29.08 34.9435 28.8259C35.0243 29.5404 35.0909 30.1261 35.1637 30.7686C35.3395 30.7601 35.5666 30.7492 35.793 30.7383C35.4611 30.8672 35.4389 31.0892 35.4136 31.4359C35.2964 33.0471 35.1144 34.6552 34.9169 36.2596C34.8466 36.8296 34.4641 36.973 33.8663 36.9627C32.0086 36.9312 30.1498 36.9851 28.2915 37.0129C28.1724 37.0147 28.0546 37.0722 27.9386 37.2053H28.8752C28.8967 37.2694 28.9183 37.3341 28.9399 37.3983C27.9676 37.8454 26.9947 38.2919 25.973 38.762C26.0551 38.3984 26.1297 38.0662 26.2229 37.6536C25.4819 38.313 21.3515 38.5877 20.3162 37.9954C21.5365 37.8006 22.6014 37.6306 23.6669 37.4606C23.6638 37.4315 23.6601 37.4019 23.657 37.3729C22.594 37.4255 21.531 37.4781 20.468 37.5308C20.46 37.414 20.4513 37.2978 20.4433 37.1811C21.188 37.0873 21.9382 37.0256 22.676 36.8943C24.9298 36.4932 27.007 35.5911 29.0578 34.6376C29.8833 34.254 30.3299 33.4827 30.4953 32.6496C30.7192 31.5182 30.7902 30.3584 30.9271 29.2107C30.8482 29.1895 30.7692 29.1689 30.6902 29.1478C30.552 29.4297 30.4033 29.7068 30.2775 29.9936C29.766 31.1588 29.0689 32.1934 27.9861 32.9121C26.7047 33.7628 25.403 34.5856 24.0845 35.3794C23.2554 35.8785 22.5681 35.9553 21.837 35.6716C23.0999 34.5989 24.2943 33.5782 25.9008 32.7863C24.9514 32.6483 24.1604 32.5328 23.3695 32.4178C23.5392 32.3047 23.7088 32.1916 23.8785 32.0784C25.4184 31.5787 26.8516 30.9446 27.8671 29.5967C28.1496 29.2216 28.6981 29.031 29.1404 28.7836C29.4409 28.6154 29.7697 28.4962 30.3028 28.2578C29.7617 28.0031 29.4212 27.6994 29.0948 27.7139C27.7437 27.775 26.3389 27.6945 25.3715 28.9723C24.4109 30.2404 23.0894 30.99 21.5119 31.3561C20.0084 31.7045 19.0928 32.9466 18.9904 34.5596C18.9787 34.7429 18.7868 34.9565 18.6196 35.0811C18.1267 35.4489 17.5782 35.7478 17.1038 36.1356C16.8126 36.3734 16.6182 36.7249 16.3258 37.0946C16.2715 37.077 16.0833 37.0153 15.8187 36.9288V35.6177C15.7674 35.6171 15.7162 35.6165 15.665 35.6159C15.8359 35.3558 16.0068 35.0956 16.2055 34.7931C15.9118 34.6304 15.6348 34.4767 15.3072 34.2952C14.3627 35.3945 13.4206 36.4902 12.4791 37.5858C12.426 37.5429 12.373 37.4999 12.3199 37.457C12.489 36.3855 13.4014 35.7654 14.0832 34.8657C13.2947 34.971 12.6272 35.0599 11.9596 35.1488C11.9442 35.0793 11.9288 35.0097 11.9134 34.9401C12.5075 34.7798 13.1127 34.6497 13.6933 34.4501C14.1621 34.2885 14.6094 34.058 15.0487 33.8263C15.1992 33.747 15.4127 33.5601 15.401 33.4415C15.2813 32.266 16.4381 31.713 16.7533 30.7438C16.8366 30.4873 17.3067 30.2229 17.6226 30.1926C18.6634 30.0922 19.2205 29.4382 19.4938 28.5984C19.9757 27.1192 21.4107 27.0073 22.457 26.9365C23.4516 26.8693 24.4991 26.5589 25.448 26.7265C26.9595 26.9927 27.9016 26.1596 28.9424 25.4506C29.7747 24.8837 30.2386 24.03 30.5995 23.0735C30.2398 22.895 30.0437 22.8085 29.8493 23.3004C29.3237 24.6278 28.3193 25.3659 26.8263 25.4003C25.9712 25.4197 25.1167 25.4947 24.2622 25.4923C22.8821 25.4881 21.7 26.0023 20.5704 26.7193C20.0879 27.0254 19.5537 27.2535 19.0089 27.5342C18.6202 25.6956 19.1952 22.9495 20.6506 22.7105C20.4853 23.2477 20.2854 23.7571 20.1786 24.2847C20.0719 24.8159 20.0583 25.3647 20.0034 25.9061C20.0997 25.9449 20.1953 25.983 20.2915 26.0217C20.547 25.5964 20.9153 25.1995 21.0368 24.7397C21.3558 23.5333 21.9703 22.5744 23.1215 21.8072C23.0647 22.4237 23.0185 22.9277 22.9685 23.4673C23.2905 23.3355 23.5663 23.2223 23.8421 23.1092C23.5367 23.3615 23.2239 23.6065 22.9278 23.8697C22.7316 24.0445 22.5594 24.2454 22.3768 24.4341C22.4206 24.4741 22.4651 24.514 22.5089 24.5533C24.4251 23.7759 26.342 22.9979 28.3896 22.1666C27.0934 21.6318 26.0859 21.8574 25.113 22.4588C24.704 22.7117 24.2567 22.9035 23.8267 23.1237C24.0852 22.6361 24.4418 22.1472 23.7212 21.6795C23.9821 21.6263 24.1586 21.5912 24.3344 21.5537C24.8644 21.4406 25.0933 21.1798 24.8687 20.6262C24.6892 20.1834 24.5664 19.7187 24.4189 19.2637C24.4738 19.2196 24.5281 19.1754 24.583 19.1312C25.1531 19.8083 25.7145 20.4925 26.2982 21.158C26.4586 21.3407 26.6671 21.5059 26.888 21.6088C27.065 21.691 27.2982 21.6451 27.4975 21.6929C28.1959 21.8604 28.8696 21.9663 29.3724 21.2216C29.3354 21.4569 29.2984 21.6923 29.2558 21.9645C29.766 22.2192 30.2627 22.4673 30.7772 22.7238C32.1296 21.6075 32.4695 19.101 31.3281 17.6472C31.1807 17.4596 31.0271 17.2279 31.0036 17.0034C30.8778 15.8043 30.792 14.6016 30.6834 13.2917C29.7463 14.1835 29.9887 15.3645 29.6297 16.4855C28.8943 15.5756 28.8832 14.6935 29.1053 13.7945C29.3292 12.887 29.9419 12.2305 30.6952 11.6975C31.3855 11.2093 32.087 10.7368 32.7292 10.1916C30.5329 11.2807 28.0077 11.9873 27.2544 14.7667C26.4456 14.5223 26.131 13.9518 26.2729 12.8978C25.4147 13.3958 24.6855 14.1508 23.4929 13.9469C23.0203 14.3771 22.4811 14.8684 21.7987 15.4891C23.4139 15.3748 24.8884 14.9555 26.0989 16.1068C26.7356 16.7124 27.1218 17.4263 27.2242 18.4736C26.7726 18.2606 26.4296 18.0652 26.0631 17.9327C25.0538 17.5673 24.0586 17.1081 23.0141 16.906C21.4347 16.6005 19.7301 17.5322 18.9781 18.9709C19.674 18.937 20.3329 18.8529 20.9862 18.885C22.1917 18.9443 22.652 19.6528 22.1973 20.8053C20.5445 20.0684 18.8466 19.343 17.1062 20.5349C16.7268 20.795 16.4479 21.1961 16.1222 21.5325C16.1685 21.6239 16.2154 21.7146 16.2616 21.806C16.7706 21.7225 17.2796 21.639 17.9434 21.5307C16.4504 23.5363 14.7359 25.3949 15.8575 28.0902C16.7583 27.9541 17.0168 27.3436 17.155 26.6467C17.2043 26.3992 17.229 26.1354 17.1988 25.8868C16.9995 24.2369 17.9576 23.2465 19.3316 22.4794C19.2378 22.6433 19.1804 22.846 19.0453 22.9646C17.7349 24.1111 17.2864 25.4379 18.1112 27.0496C18.3167 27.4513 18.2328 27.7804 17.8756 28.0563C17.4511 28.3842 16.9958 28.6843 16.6201 29.06C16.1752 29.5047 15.8014 30.0172 15.454 30.4322C15.1289 29.6348 14.7334 28.8084 14.4706 27.9432C14.3781 27.6377 14.5983 27.2335 14.6964 26.8796C14.8525 26.3157 15.1258 25.7634 15.1653 25.1934C15.211 24.5437 15.0549 23.88 14.9703 23.0735C14.449 23.641 14.0536 24.0717 13.6581 24.5025C13.6112 24.4705 13.5643 24.439 13.5174 24.4069C13.5501 24.1958 13.5828 23.984 13.6149 23.7729L13.4761 23.621C13.1942 23.8255 12.8456 23.981 12.642 24.2442C12.0041 25.0688 11.3501 25.8959 10.8448 26.7985C10.5869 27.2589 10.6418 27.8857 10.5413 28.4345C10.445 28.9584 10.3155 29.4775 10.2371 30.0033C10.2205 30.117 10.3599 30.2531 10.4271 30.379C10.3741 30.4504 10.321 30.5223 10.268 30.5937L10.2821 30.5792C10.218 30.8388 10.1532 31.0983 10.0526 31.5043C10.4808 31.2841 10.6992 31.1721 10.9176 31.0596L10.9065 31.0421C11.0243 31.082 11.1416 31.1213 11.2594 31.1612C10.8041 31.6785 10.3309 32.1825 9.90334 32.721C9.75527 32.9073 9.71949 33.1802 9.64176 33.3895C6.69706 37.123 3.58208 40.7657 1.27901 44.9881C1.21608 44.9808 1.15315 44.9736 1.09022 44.9663C1.15377 44.6106 1.13032 44.2082 1.2969 43.907C1.88732 42.8397 2.47404 41.7598 3.186 40.77C4.96158 38.3003 6.80811 35.8791 8.61885 33.4337C8.83047 33.1481 9.05627 32.8486 9.16362 32.5201C9.24691 32.2654 9.15498 31.9562 9.13709 31.5993C9.91445 31.4958 9.32464 30.9822 9.25678 30.5865C9.25555 30.5369 9.24938 30.4879 9.23704 30.4395L9.20866 30.408C9.16917 30.3675 9.1303 30.3269 9.09082 30.287L9.04948 30.2404C9.00383 30.2065 8.95818 30.172 8.91314 30.1382C8.84774 30.1134 8.78235 30.0892 8.71633 30.0644C8.67685 29.999 8.63736 29.9331 8.59788 29.8677C8.88414 29.44 8.87797 28.5863 9.61153 29.0225C10.1952 27.409 10.7751 25.8057 11.3242 24.2883C10.888 24.4257 10.2229 25.1735 9.95393 26.0459C9.71641 26.8161 9.54736 27.6068 9.34747 28.3885C9.21729 28.3637 9.08774 28.3389 8.95756 28.3141C9.03653 27.8246 9.03344 27.3049 9.20927 26.8512C9.69975 25.5849 10.2821 24.364 11.4445 23.5157C11.6536 23.3627 11.7665 23.082 11.9239 22.8599C12.3341 22.6088 12.7444 22.3578 13.1547 22.1067L13.2102 22.1273L13.5032 21.8193L13.5076 21.7909C13.7766 21.5337 14.0141 21.2294 14.3213 21.0298C14.9204 20.6407 15.5805 20.3401 16.1697 19.9389C16.385 19.7919 16.4708 19.4622 16.6158 19.216C16.3394 19.2329 15.984 19.1482 15.7995 19.2849C14.7964 20.0261 13.8321 20.8192 12.861 21.6021C12.5716 21.835 12.3027 22.0928 12.0244 22.3396C12.1916 22.0335 12.299 21.6717 12.5352 21.4309C13.8981 20.0436 15.1523 18.4966 16.7231 17.3822C17.7892 16.6259 18.6227 15.6047 19.7801 14.9863C20.2403 14.7407 20.4698 14.4037 20.3526 13.8544C20.4593 14.005 20.5661 14.1557 20.7135 14.365C21.4989 13.8459 22.2584 13.3437 23.103 12.7853C22.6631 12.4598 22.3232 12.2075 21.9555 11.9353C21.8006 12.095 21.6642 12.236 21.4779 12.4272C20.9362 11.9643 20.4032 11.5088 19.8708 11.0538C19.7943 10.9243 19.7172 10.7942 19.6407 10.6648C19.5783 10.1874 19.4358 9.7034 19.4772 9.23452C19.5154 8.79771 19.6308 8.21024 19.9343 8.00212C20.1823 7.83272 20.8696 7.99305 21.1701 8.23626C22.5385 9.34463 24.0895 10.0404 25.7756 10.5226C26.5338 10.7392 27.2298 10.7392 27.9621 10.4488C31.8538 8.9054 35.9053 8.0354 40.0845 7.69901C42.018 7.54352 42.9607 6.6826 43.2963 4.78953C43.5561 3.32541 44.0293 1.94236 45.204 0.969503C45.7845 0.488521 46.5859 0.0329495 47.3059 0.00269906C48.2042 -0.0348115 49.1389 0.326379 50.0279 0.605892C54.7031 2.07667 56.757 6.91613 56.3029 10.8057C56.248 11.2782 56.095 11.7405 55.9623 12.3146C64.198 15.7874 71.4792 20.6813 77.5919 27.1869C77.5475 27.2426 77.5031 27.2983 77.4581 27.3539C76.0015 26.1288 74.5559 24.8915 73.087 23.6815C68.2939 19.7357 63.0159 16.5545 57.2943 14.0788C57.0593 13.9772 56.8038 13.9209 56.5577 13.8435C56.5133 13.9324 56.4688 14.0214 56.4244 14.1109C56.8014 14.3196 57.182 14.5235 57.5553 14.7383C59.7165 15.9828 61.8961 17.1995 64.0234 18.4984C64.5749 18.8354 65.066 19.3726 65.4016 19.925C66.3598 21.5053 67.3654 23.0299 68.9423 24.1111C68.9127 24.1928 68.8831 24.275 68.8541 24.3567C68.6524 24.3131 68.4148 24.3222 68.2538 24.2176C65.1728 22.2059 62.101 20.1797 59.0261 18.1584C58.7929 18.0053 58.5547 17.8595 58.121 17.5855C58.8885 20.8809 59.4105 24.0445 60.3902 27.0647C61.3625 30.0619 62.7969 32.9146 63.9259 35.5875C62.3724 33.6448 60.6622 31.5061 58.9527 29.368C58.8823 29.4152 58.812 29.4624 58.7423 29.509C58.8392 29.7001 58.9348 29.8925 59.0341 30.0825C60.5117 32.9285 62.1158 35.7194 63.4299 38.6361C64.612 41.26 64.2276 44.014 63.4033 46.7003C63.1233 47.6138 62.8216 48.5214 62.5297 49.4313C62.6056 49.4712 62.6815 49.5111 62.7574 49.5511C62.9721 49.2177 63.238 48.9061 63.3941 48.548C64.3973 46.2495 64.9864 43.835 65.414 41.3786C65.4572 41.1294 65.5004 40.8807 65.5509 40.5909C66.1383 41.9249 66.1241 45.1575 65.3393 48.306C64.7162 50.8053 63.8864 53.2549 63.1251 55.8032C63.2719 55.6036 63.4095 55.4505 63.5082 55.2769C66.3357 50.3152 67.7319 45.0038 67.2383 39.3204C66.8928 35.3425 65.2542 31.7783 63.0171 28.4774C62.3144 27.4404 61.4852 26.4785 60.8603 25.3997C60.318 24.4638 59.9706 23.4171 59.5659 22.408C59.4814 22.1962 59.5234 21.9361 59.6393 21.6644C59.9534 22.1394 60.2674 22.6143 60.582 23.0892C60.6203 23.0729 60.6585 23.0565 60.6962 23.0396C60.3482 21.8792 60.0009 20.7188 59.6529 19.5578C59.7263 19.5106 59.7997 19.4634 59.8732 19.4162C61.6728 20.7327 63.5249 21.9863 65.2604 23.3802C68.553 26.0241 71.4342 29.0419 73.4676 32.7554C74.6769 34.9637 75.5788 37.2706 75.7874 39.8056C75.9354 41.6025 75.5437 43.2354 74.4912 44.7189C74.2129 45.1109 73.9902 45.5405 73.5953 45.9204C73.6348 45.7286 73.6429 45.5229 73.7194 45.3463C74.5942 43.3231 74.514 41.2861 73.8033 39.249C72.4491 35.3697 70.2694 31.9683 67.5252 28.9003C67.4283 28.792 67.3 28.7103 67.0958 28.6747C67.1822 28.8374 67.2531 29.0098 67.3561 29.1617C70.2614 33.4391 71.6193 38.1872 71.5193 43.2862C71.4366 47.5013 70.075 51.4308 68.0403 55.1153C65.2042 60.2513 61.587 64.8306 57.3511 68.9162C55.0252 71.1596 52.5321 73.2359 50.1044 75.3771C49.8083 75.6378 49.451 75.832 49.0364 75.967C52.223 72.7985 55.3022 69.5563 57.9791 65.9752C57.9131 65.9014 57.8465 65.8276 57.7805 65.7538C57.5102 65.9722 57.2104 66.1634 56.9754 66.4139C53.84 69.7475 50.5097 72.8808 46.9314 75.7498C40.0999 81.2263 46.5878 74.455 38.8543 78.6665C38.5397 78.8377 37.7364 77.8032 37.3619 77.8806C38.4459 77.1818 38.9796 77.6095 40.0672 76.9168C47.7914 72.0005 41.9921 77.9121 48.4904 71.5685C51.5079 68.6228 54.4206 65.5832 56.9568 62.22C59.2605 59.1659 61.2323 55.92 62.6729 52.3807C62.766 52.1526 62.829 51.913 62.8117 51.6214C62.7278 51.7188 62.6198 51.8041 62.5637 51.9148C59.3815 58.1476 54.697 63.1511 49.3209 67.6057C43.859 72.1318 37.8727 75.8199 31.3355 78.6502C31.2214 78.6998 31.0999 78.7331 30.9006 78.6665C31.2813 78.4039 31.657 78.1347 32.0426 77.8806C34.8812 76.0117 37.7518 74.187 40.5491 72.2601C41.8163 71.387 42.9552 70.3283 44.1187 69.3173C44.479 69.0045 44.7937 68.604 45.0176 68.1859C45.4668 67.3486 45.2305 66.867 44.3149 66.57C44.1231 66.5076 43.9269 66.4574 43.5678 66.3546C45.4224 65.5281 47.1628 64.7525 48.9032 63.9769C46.6655 64.5039 44.6524 65.5457 42.6553 66.6244C42.6134 66.5748 42.5708 66.5246 42.5289 66.475C42.6652 66.328 42.7898 66.1688 42.9391 66.0363C44.782 64.4028 46.8944 63.1662 49.1068 62.0959C54.94 59.273 58.5745 54.6555 60.4654 48.6508C61.1657 46.4268 61.3415 44.1114 61.186 41.7822C61.1799 41.6938 61.1539 41.6061 61.0805 41.5147C61.038 45.1841 60.2335 48.6545 58.3505 51.8622C58.7003 50.2722 59.0502 48.6823 59.4 47.0923C57.9057 51.0569 56.6021 55.0669 53.3261 58.0387C53.2619 58.0067 53.1984 57.9746 53.1342 57.9431C53.7043 56.9721 54.2743 56.0011 54.8444 55.0294C54.7957 54.9889 54.7463 54.9484 54.6976 54.9078C52.9072 57.6552 50.1982 59.2645 47.359 60.7982C48.1832 59.8931 48.971 59.0279 49.7583 58.1628C49.6935 58.0992 49.6281 58.0357 49.5633 57.9722C48.7446 58.8858 47.9253 59.7987 46.5273 60.2742C46.9277 59.5997 47.2356 59.0812 47.6372 58.4048C44.2027 60.6814 42.6171 62.5975 41.4566 66.19C40.2499 69.9272 37.8635 72.7634 34.8645 75.2349C30.1973 79.0815 26.1439 75.2724 20.7135 77.8806C21.6112 71.2854 16.6997 71.283 17.7256 77.8806C20.1515 76.4449 24.0315 78.4281 26.4505 76.9168C29.2102 75.1925 32.1382 76.5514 34.255 74.0733C35.3069 72.8421 36.0854 71.3828 36.9479 70.0022C37.1423 69.6918 37.2398 69.2816 37.2496 68.9144C37.257 68.6209 37.0627 68.3221 36.9578 68.0256C36.6808 68.1212 36.3464 68.1496 36.1366 68.3239C34.7306 69.4885 33.6843 70.9339 32.8495 72.5329C32.7348 72.7532 32.6324 72.9794 32.5238 73.2033C32.4621 73.1851 32.401 73.1676 32.3393 73.1494C32.5016 72.5366 32.62 71.9092 32.8329 71.3138C33.5504 69.3106 34.875 67.6789 36.2082 66.0497C36.5025 65.6897 37.133 65.3176 36.476 64.7065C36.7339 64.2721 36.9911 63.8383 37.2484 63.404C37.2034 63.3519 37.1589 63.2999 37.1139 63.2479C32.5836 67.8768 26.8139 70.8915 21.6593 74.7654C22.2294 74.034 22.7556 73.265 23.3788 72.5801C24.5183 71.3284 25.7121 70.1244 26.888 68.9047C28.2705 67.4696 29.5174 65.9547 29.9622 63.9594C30.0153 63.7216 30.0486 63.4802 30.122 63.067C28.9504 63.2116 27.9022 63.2963 26.8713 63.476C20.4303 64.5976 14.594 67.2058 9.04887 70.5164C7.7323 71.303 6.42621 72.1064 5.08682 72.856C8.77926 70.1329 12.6691 67.7261 16.8292 65.7453C20.9628 63.7772 25.2043 62.1274 29.8802 61.4927C29.6217 60.1176 29.3669 58.9093 28.2298 58.0194C27.6554 57.5693 27.2748 56.8874 26.7646 56.3489C26.3531 55.9146 25.8503 55.6235 25.1235 55.8323C25.2938 56.0162 25.4233 56.156 25.4628 56.1989C25.0994 56.2576 24.6028 56.2152 24.2573 56.4191C23.5169 56.8559 22.8488 57.412 22.1627 57.9353C21.4724 58.4616 20.7728 58.9801 20.1243 59.5543C19.7406 59.8943 19.4617 60.3462 19.1101 60.7244C18.9454 60.9016 18.7399 61.1001 18.5172 61.1576C17.9502 61.3052 17.5949 61.5696 17.7256 62.344C17.4505 62.0856 17.2913 61.9356 17.0347 61.6954C16.9168 62.0687 16.8175 62.3851 16.7336 62.6519C16.2592 62.4614 15.7779 62.2381 15.2739 62.0862C15.1314 62.0433 14.9272 62.2199 14.7445 62.2756C14.6545 62.3028 14.5286 62.3204 14.454 62.2799C13.9746 62.0191 13.5057 61.7408 13.0152 61.4582C12.8382 61.7136 12.724 61.8787 12.6574 61.9743C12.3378 61.8213 11.9769 61.7372 11.7474 61.52C11.3106 61.1061 10.9916 60.5707 10.5456 60.1696C9.91568 59.6039 9.58931 58.9928 9.52022 58.118C9.43569 57.0526 8.70646 56.2552 7.86371 55.505C7.6595 55.7833 7.50403 55.995 7.38742 56.1535C6.30961 54.9556 5.19293 53.8091 4.19162 52.5731C3.40933 51.6069 2.82385 50.4961 2.71526 49.2304C2.6437 48.401 2.15754 47.8522 1.6208 47.2902C1.32898 46.9846 1.05259 46.6216 0.908219 46.2344C0.721284 45.7317 1.01248 45.5411 1.55293 45.5834C2.0724 45.6246 2.62149 45.5961 3.12554 45.4733C4.30021 45.1859 5.46377 44.8453 6.61562 44.4775C6.99628 44.3559 7.3319 44.0921 7.67924 43.8791C7.91245 43.7363 8.129 43.5681 8.49361 43.3128C8.30914 43.8912 8.17835 44.3026 8.04694 44.714C8.09753 44.7558 8.14874 44.7975 8.19933 44.8399C9.04517 44.0146 9.891 43.1894 10.8281 42.2746C10.8281 42.5045 10.8491 42.7617 10.8251 43.0146C10.6221 45.1551 9.59055 46.8933 8.16108 48.4723C7.56634 49.1294 7.05612 49.8893 6.6514 50.674C6.1344 51.6777 6.26457 52.3692 7.17643 53.0335C8.19378 53.7746 9.33698 54.35 10.4253 54.9974C10.4993 54.9175 10.574 54.8376 10.648 54.7578C10.2951 54.2302 9.94159 53.7026 9.4579 52.9797C9.9564 53.2616 10.3549 53.3971 10.6215 53.6603C10.9589 53.9937 11.1897 54.4311 11.5086 54.8836C11.8449 54.4099 12.0293 53.7734 12.7265 54.0989C13.4693 53.4153 12.4643 53.0075 12.513 52.4231C13.2293 52.2791 13.9222 52.1284 14.6199 52.0032C15.2862 51.8834 15.9569 51.7908 16.7083 51.6728C16.712 51.6396 16.7287 51.4768 16.7502 51.2699H18.3198C18.3222 51.1822 18.3253 51.0945 18.3278 51.0073C17.7232 51.0019 17.1099 50.9287 16.5164 51.0049C15.1857 51.1761 13.8703 51.4835 12.5365 51.6039C12.0732 51.6456 11.5734 51.2996 10.9151 51.0696C11.252 50.8331 11.4056 50.6383 11.5222 50.6576C12.5612 50.8289 13.3428 50.0726 14.3201 49.9401C15.2474 49.8143 16.1166 49.2619 17.0063 48.8856C17.7367 48.5764 18.4777 48.2842 19.1773 47.9163C19.5345 47.7282 19.8109 47.3918 20.1243 47.1226C20.5383 47.1189 20.9523 47.1111 21.3663 47.1117C22.6859 47.1135 24.0056 47.1002 25.324 47.131C25.8095 47.1425 26.371 47.1177 26.5314 47.7469C25.8885 47.8389 25.2419 47.9315 24.7891 47.9962C27.4451 48.1971 30.2738 48.4112 33.0309 48.6194C32.1783 48.3737 31.2449 48.1039 30.3108 47.8347C30.3201 47.7518 30.3299 47.6683 30.3392 47.5854C30.6563 47.4795 30.9734 47.373 31.2905 47.2672C31.3022 47.1861 31.3146 47.1056 31.3263 47.0246C30.8093 46.8824 30.2941 46.6247 29.7753 46.6168C27.2427 46.5805 24.7083 46.5781 22.1763 46.6386C21.4792 46.6549 20.7882 46.9284 20.0947 47.0839L20.0941 47.0869ZM57.6879 35.2009C57.7151 35.1888 57.7317 35.1682 57.7373 35.1398L57.7811 35.1095L57.7484 35.0708C57.728 35.0399 57.6997 35.0248 57.662 35.0254C57.6503 34.9867 57.638 34.9474 57.6256 34.9087C57.9014 33.9945 57.2413 33.2649 56.855 32.6574C56.4041 31.9484 55.9278 31.2695 55.6378 30.477C55.6286 30.4516 55.6915 30.4007 55.7507 30.3227C55.9272 30.402 56.111 30.4848 56.2949 30.5677C55.6816 29.6844 54.9826 28.913 54.3484 28.0926C53.6266 27.1591 52.4809 26.4954 52.3704 25.1475C52.3624 25.0458 51.9596 24.9756 51.7405 24.8903C51.664 25.0827 51.4808 25.3066 51.5283 25.4627C51.9157 26.7441 52.3563 28.0097 52.7616 29.2857C53.4254 31.376 54.0745 33.4712 54.6575 35.3334C54.3533 36.5101 55.4015 37.2797 55.1887 38.264C55.0227 38.1442 54.8919 38.0499 54.6254 37.8575C55.7248 40.4814 56.7551 42.9389 57.8366 45.5199C57.9162 44.4515 57.9902 43.4641 58.0643 42.4767C58.1266 42.4622 58.1883 42.4477 58.2506 42.4338C58.5985 43.4278 58.9465 44.4218 59.2883 45.3971C59.2883 45.1502 59.3463 44.8604 59.2784 44.6027C58.9804 43.4786 58.6282 42.3678 58.3308 41.2431C58.1704 40.6375 58.0741 40.0149 57.9625 39.3972C57.8952 39.0239 57.9322 38.6149 57.7885 38.2767C57.3751 37.3051 56.8933 36.3613 56.4386 35.406C56.525 35.3497 56.6114 35.2928 56.6971 35.2366C57.2197 35.8628 57.7416 36.4895 58.374 37.2476C58.105 36.4605 57.8958 35.8488 57.6867 35.2372V35.1997L57.6879 35.2009ZM16.5028 58.8537L16.53 58.867L16.4887 58.8482L16.4991 58.8253L16.5028 58.8537ZM49.0235 24.1746L49.0531 24.1855L49.0087 24.1764C48.9612 24.1195 48.9137 24.0621 48.8662 24.0052L48.8791 23.9901C48.9272 24.0512 48.9747 24.1135 49.0235 24.1746ZM51.3667 30.1115C51.3617 30.068 51.363 30.0238 51.3704 29.9809C51.5221 30.0232 51.6739 30.0656 51.8257 30.1073C51.6239 29.6717 51.3278 29.3704 51.0514 29.0528C50.9416 28.9269 50.7633 28.6886 50.8046 28.6305C51.2223 28.0448 50.6707 27.827 50.3913 27.5155C50.1254 27.2196 49.8379 26.9425 49.4665 26.5608H50.3172C50.0538 26.2468 49.8638 25.9527 49.609 25.7301C48.6848 24.9224 47.7291 24.1492 46.8117 23.3342C46.6834 23.2199 46.7025 22.9458 46.6532 22.7456C46.4076 22.3148 45.5464 22.4322 45.6303 21.5852C45.0004 21.0691 44.3705 20.553 43.595 19.9172C44.041 19.9898 44.2989 20.0315 44.6129 20.0829C44.2372 19.32 43.3179 19.2244 43.0341 18.3466C42.8256 17.701 41.981 17.2539 41.4202 16.7185C41.4603 16.6864 41.5004 16.6543 41.5399 16.6223C41.9637 16.6882 42.3876 16.7542 42.9373 16.8395C41.77 16.0312 40.4288 15.7505 39.4157 14.7153C40.3091 14.5029 40.8298 14.1793 40.6583 13.3226C40.9711 13.2385 41.2277 13.1689 41.5202 13.0902C41.5504 13.3885 41.5738 13.6202 41.6182 14.0625C42.1525 13.498 42.5659 13.0618 43.0255 12.5766C43.0792 12.847 43.1199 13.0527 43.1896 13.4042C43.6246 12.7726 43.9898 12.2553 44.3408 11.7296C44.6931 11.2008 45.0306 10.6629 45.3748 10.1293L45.584 10.2279C45.4236 10.9413 45.2632 11.6552 45.1028 12.3685C45.1441 12.3721 45.1855 12.3751 45.2268 12.3788C45.4785 11.784 45.7302 11.1887 46.0245 10.4954C46.2423 10.721 46.3509 10.8336 46.5434 11.0332C46.9475 10.3193 47.3189 9.66287 47.6613 9.05786C47.7285 9.4614 47.7995 9.88733 47.8642 10.277C48.0166 10.0761 48.1801 9.8601 48.4503 9.50436C48.5231 9.99502 48.5639 10.2691 48.6046 10.5438C48.6706 10.5492 48.7366 10.5553 48.8026 10.5607C48.8581 10.237 49.0691 9.82804 48.9421 9.60479C48.3504 8.56538 49.0587 7.82546 49.3764 6.97663C50.2247 7.31544 50.8299 6.56886 51.0249 5.01943C50.6566 5.14588 50.3074 5.26567 49.8885 5.40905V4.63948C49.5639 4.46827 49.29 4.32306 49.0142 4.17726C48.5275 4.37268 47.9333 4.84095 47.5589 4.70906C46.9191 4.484 46.6186 4.79134 46.2713 5.08295C45.0966 6.06912 44.4223 7.38259 43.8664 8.76504C43.7794 8.98223 43.6838 9.1958 43.5919 9.41058C43.54 9.39183 43.4882 9.37307 43.4364 9.35431C43.6042 8.75657 43.7726 8.15882 43.9404 7.56107C42.7664 8.33488 42.0008 9.35129 41.4683 10.6043C41.4436 10.1626 41.4221 9.76633 41.3924 9.23331C39.8643 10.2437 38.4354 11.1887 36.9899 12.1446C36.943 11.9661 36.9128 11.8506 36.8677 11.6812C35.9602 12.7363 35.7122 13.9445 35.7764 15.385C34.7985 14.336 34.7676 13.2034 34.8071 12.0079C33.6201 13.2808 33.6399 14.1551 34.8281 15.2689C35.379 15.7856 35.9392 16.2932 36.4821 16.8183C36.7369 17.0651 36.9597 17.3435 37.1966 17.6078C37.1429 17.6756 37.0892 17.7434 37.0355 17.8105C36.5809 17.5582 36.099 17.3416 35.6783 17.0434C35.2236 16.7215 34.8256 16.3222 34.2327 15.8104C34.1686 16.1443 34.01 16.4402 34.1007 16.5914C34.4252 17.1317 34.7652 17.6956 35.2242 18.1197C37.4495 20.1743 39.4404 22.4213 41.142 24.9756C40.2258 24.6804 39.301 24.3785 38.4601 23.9265C37.6173 23.4734 36.8579 22.8702 36.0213 22.3051C35.888 22.5405 35.8023 22.6228 35.7992 22.7081C35.7474 24.0506 34.8602 24.6223 33.6781 24.8558C32.799 25.0295 31.8994 25.1033 30.9611 25.2279C30.9333 25.5286 30.9068 25.8172 30.8691 26.2232C31.4972 26.1276 32.0247 26.0477 32.5522 25.9666C34.0285 25.7398 35.503 25.5038 36.9819 25.2963C37.1873 25.2672 37.4594 25.3217 37.6223 25.4409C38.5175 26.0943 39.3892 26.7798 40.3806 27.5397H38.4965C38.9166 28.2693 39.3399 28.8822 39.6378 29.5489C40.1974 30.8013 40.2344 32.3071 41.6571 33.1311C41.6096 33.1741 41.5627 33.2171 41.5152 33.2594C41.2592 33.2001 41.0038 33.1402 40.7959 33.0924C40.9482 34.3158 41.0969 35.5094 41.2697 36.8997C40.5614 36.6202 40.1012 36.4387 39.5052 36.204C40.0278 37.0667 40.4214 37.8538 40.9439 38.5472C41.7311 39.592 42.6115 40.5691 43.4457 41.5807C43.5987 41.7664 43.7196 41.9782 43.9639 42.3388C43.9225 41.9854 43.9053 41.8318 43.8824 41.6351C44.4322 42.2335 44.9387 42.7853 45.5365 43.4363C45.2299 42.2474 44.9381 41.2328 44.7116 40.2043C44.5364 39.4087 44.6536 39.324 45.5643 39.563C44.9547 38.4576 44.3914 37.4364 43.7665 36.3026C44.3779 36.5023 44.8313 36.6499 45.4082 36.838C44.9251 35.9801 44.513 35.2475 44.0558 34.4349C44.7616 34.7157 45.3699 34.9577 45.9782 35.1997C46.3737 35.4453 46.7685 35.6915 47.164 35.9372C48.467 37.2682 49.7694 38.5986 51.1279 39.9859C49.865 39.7723 48.641 39.5648 47.2473 39.3289C48.6694 40.2709 49.8002 41.2679 50.6905 42.4991C50.6473 42.565 50.6035 42.631 50.5603 42.6969C49.9372 42.4035 49.3147 42.1095 48.6546 41.7985C48.8427 42.3497 49.0118 42.8458 49.2006 43.3994C48.9488 43.4193 48.7712 43.4707 48.6126 43.4357C48.4429 43.3987 48.2918 43.2802 47.9932 43.1247C49.3003 44.7409 49.8072 45.6262 49.514 45.7807C49.8632 46.5357 50.2105 47.2871 50.5578 48.038C49.4714 47.6465 48.5873 47.1365 47.6446 46.7735C46.6853 46.4038 45.6704 46.1721 44.6765 45.892C43.7134 45.6203 42.746 45.3644 41.7805 45.1018C43.1063 45.7123 44.455 46.2296 45.8326 46.6585C47.1498 47.0693 47.8161 48.0016 48.1036 49.2286C48.2801 49.9824 48.3097 50.769 48.4207 51.6698C47.7304 51.0491 47.1492 50.5263 46.7297 50.1494C45.9665 50.3279 45.3823 50.4646 44.7153 50.6201C44.7252 50.7962 44.74 51.066 44.7548 51.3359C44.7962 52.0655 45.0028 52.8163 44.4747 53.4727C44.4482 53.5054 44.3908 53.5145 44.4143 53.5036C43.8164 52.8708 43.2322 52.2524 42.6485 51.6341C42.5973 51.6765 42.5468 51.7188 42.4955 51.7606C42.5899 52.1091 42.685 52.4569 42.7861 52.8302C42.3086 52.967 41.9286 53.0759 41.5837 53.1745V54.1812C41.092 53.7129 40.6478 53.29 40.314 52.9718C39.8192 53.146 39.4959 53.2598 39.1467 53.3832C39.4491 54.5406 39.7538 55.7101 40.0672 56.9092C40.2998 56.5988 40.5688 56.2407 40.852 55.8631C40.9131 56.0077 40.968 56.1372 41.0278 56.2782C41.2043 56.2104 41.3579 56.1517 41.5936 56.061V57.0381C42.2852 56.2528 42.9015 55.5528 43.5906 54.7699C43.6585 55.4566 43.7196 56.0737 43.7807 56.6908C43.8442 56.7331 43.9077 56.7749 43.9713 56.8172C44.7567 56.0495 45.5414 55.2817 46.4539 54.3893C46.2355 55.2775 46.0498 56.0337 45.8641 56.79C45.9511 56.842 46.0381 56.8941 46.1251 56.9461C46.8019 56.1995 47.478 55.4529 48.2221 54.6319V56.0834C48.2801 56.1088 48.3381 56.1342 48.3961 56.1596C48.5885 55.9527 48.781 55.7452 48.9649 55.5479C49.005 55.6719 49.0469 55.8008 49.1271 56.0495C49.3807 55.433 49.5806 54.9453 49.8237 54.3542C49.9353 54.7644 50.0088 55.0337 50.0822 55.3029C50.1753 55.3065 50.2691 55.3095 50.3623 55.3132C50.6516 54.2423 50.941 53.1708 51.239 52.0685C51.3074 52.4134 51.3735 52.7479 51.4401 53.0819C51.4783 53.0801 51.516 53.0777 51.5542 53.0753V50.9668C51.6283 50.9244 51.7029 50.8815 51.7769 50.8391C52.2551 51.3546 52.7338 51.8695 53.2144 52.3874C53.0799 51.7842 52.9411 51.164 52.8023 50.5433C52.893 50.5203 52.9837 50.4973 53.075 50.4743C53.3736 51.0981 53.6722 51.7218 53.9696 52.3432C53.7469 50.5856 53.5235 48.8226 53.3002 47.0597C53.3841 47.0373 53.468 47.0143 53.5525 46.9919C53.8857 47.387 54.2182 47.7814 54.5514 48.1765C54.5797 48.1644 54.6081 48.1517 54.6365 48.1396C54.3687 47.3616 54.101 46.5841 53.8338 45.8061C53.9122 45.7613 53.9906 45.7165 54.0689 45.6718C54.2941 45.8152 54.5193 45.9585 54.7907 46.1322C54.3379 44.8284 53.9023 43.5748 53.4674 42.3212C53.5352 42.297 53.6031 42.2722 53.671 42.248C53.8289 42.3206 53.9868 42.3932 54.2176 42.4997C54.1608 42.1476 54.1213 41.8977 54.0812 41.6479L54.1146 41.6672C54.1547 41.5462 54.2546 41.4089 54.225 41.3066C53.9572 40.3719 53.6666 39.4438 53.3687 38.4679C53.5729 38.4831 53.7759 38.4982 54.1072 38.523C53.5871 37.7601 53.1219 37.0776 52.5247 36.2022C53.1379 36.4139 53.5593 36.5597 54.1763 36.7727C53.5889 35.8833 53.1145 35.164 52.6394 34.444C52.7048 34.4041 52.7696 34.3642 52.835 34.3242C53.0843 34.5239 53.3329 34.7235 53.5821 34.9238C53.5939 34.9008 53.6056 34.8772 53.6173 34.8536C52.9973 33.977 52.3772 33.1003 51.7572 32.2236C51.8195 32.1746 51.8824 32.1256 51.9447 32.0772C52.1594 32.1347 52.3748 32.1916 52.5895 32.249C52.6283 32.2006 52.6672 32.1516 52.7061 32.1032C52.2347 31.4928 51.7634 30.8823 51.292 30.2719C51.3185 30.2168 51.3445 30.1624 51.371 30.1073L51.3667 30.1115ZM52.4889 12.0539C52.3717 12.1349 52.2285 12.1954 52.1422 12.3007C50.7398 14.0123 50.9484 15.9955 51.0761 17.96C51.7776 17.3858 51.6468 16.6695 51.6079 15.9193C51.5752 15.2852 51.7856 14.6391 51.8886 13.9984C51.9441 14.5205 52.0003 15.0426 52.0558 15.5647C52.1193 15.5569 52.1829 15.5484 52.2464 15.5405C52.123 13.864 52.2446 13.3002 52.9923 12.2777C53.0491 12.6347 53.0947 12.9202 53.1478 13.2554C54.4471 11.6896 54.5563 8.71966 53.394 7.11034C53.3045 6.98631 52.8844 6.90766 52.8486 6.95969C52.5746 7.36142 52.136 7.8182 52.1687 8.22537C52.244 9.16192 52.5241 10.0894 52.7881 11.0024C52.9189 11.4543 52.8844 11.784 52.4889 12.0539ZM44.3735 16.2774C44.6012 16.7856 44.7135 17.1408 44.9054 17.4481C45.9295 19.0877 47.0388 20.6801 47.9771 22.365C48.3479 23.0311 48.7304 23.0384 49.2851 22.9555C48.8828 22.1067 48.4991 21.2978 48.1153 20.4889C48.2282 20.4356 48.3226 20.3903 48.4078 20.3503C47.805 19.7302 46.9271 19.3962 46.9382 18.3889C46.9394 18.2764 46.7605 18.1445 46.6415 18.0507C45.9511 17.5032 45.2533 16.9641 44.3735 16.2774ZM32.5608 15.1479C32.5435 14.8696 32.5102 14.627 32.5164 14.3856C32.5491 13.1374 32.7582 11.9952 34.0076 11.2746C35.1557 10.6127 36.2465 9.85405 37.3619 9.13772C35.7696 9.59632 34.2272 10.1898 32.7095 10.8378C32.3986 10.9709 32.1561 11.2897 31.9204 11.5565C31.0746 12.5137 31.1887 14.5156 32.5608 15.1479ZM36.4821 50.7399C34.2667 49.5208 24.1672 48.2588 22.3157 48.9842C27.0478 49.45 31.8489 49.3956 36.4821 50.7399ZM56.8563 29.5797C56.9211 29.5598 56.9858 29.5398 57.05 29.5199C56.251 27.1639 55.4515 24.808 54.6649 22.489C54.2503 25.1596 55.2676 27.4537 56.8563 29.5797ZM18.5536 50.6861C21.2719 51.6099 23.9895 52.5344 26.7078 53.4582C26.7313 53.4032 26.7553 53.3475 26.7788 53.2924C25.9514 52.93 25.1247 52.5683 24.2974 52.2059C24.3023 52.1889 24.3073 52.172 24.3122 52.1556C25.0248 52.2966 25.7374 52.4376 26.4505 52.5779C24 51.19 21.1769 51.3528 18.5536 50.6861ZM6.35712 53.9108C6.26087 52.0225 5.54645 51.1525 3.1897 50.0811C4.04973 51.6747 5.16764 52.8145 6.35712 53.9108ZM12.6876 58.1761C13.3194 58.8428 13.887 59.4418 14.4546 60.0407C14.5187 59.9996 14.5829 59.9584 14.6471 59.9173C14.5138 59.4085 14.4355 58.8761 14.2269 58.3993C14.0955 58.0992 13.816 57.781 13.5199 57.6479C13.0171 57.4216 12.4495 57.3357 11.7807 57.156C11.7449 57.6419 11.703 58.213 11.6604 58.7841C11.7443 58.7926 11.8282 58.8004 11.9115 58.8089C11.9843 58.6577 12.0565 58.5058 12.1725 58.2644C12.3181 58.7139 12.4242 59.0406 12.5303 59.3673C12.5612 59.3643 12.5926 59.3613 12.6235 59.3583C12.6432 58.9916 12.663 58.625 12.6876 58.1761ZM51.3278 6.71587C50.2864 7.23921 49.754 10.3102 50.9002 11.2631C51.052 9.65137 51.1908 8.17394 51.3278 6.71587ZM21.6476 29.1012C21.9554 29.7836 22.4947 30.1115 23.0289 29.9869C23.8149 29.803 24.5645 28.8132 24.4893 27.8779C24.0124 28.2457 23.6465 28.6523 23.1875 28.8465C22.7285 29.0413 22.1757 29.0231 21.6476 29.1012ZM37.9492 9.57333C35.8368 10.231 34.4703 11.8772 35.0465 13.0515C36.0052 11.902 37.0004 10.7101 37.9492 9.57333ZM64.578 28.158C65.7916 30.307 67.0057 32.4554 68.2192 34.6043C67.5696 32.1516 66.2253 30.0686 64.578 28.158ZM17.4443 57.6292C17.4104 57.6836 17.3765 57.7387 17.3425 57.7931C17.5128 57.8978 17.6831 58.0018 17.8534 58.1065C17.878 58.0714 17.9027 58.0363 17.9274 58.0012C17.7664 57.8772 17.6053 57.7532 17.4443 57.6292ZM15.9686 58.6558L15.997 58.6153L15.9519 58.6093L15.9686 58.6558Z" fill="#02092B"/>
</svg>